<svg width="24" height="25" viewBox="0 0 24 25" fill="none" xmlns="http://www.w3.org/2000/svg">
<path d="M18.9 21.2882L13.425 15.8132L15.525 13.7132L21 19.1882L18.9 21.2882ZM5.1 21.2882L3 19.1882L9.9 12.2882L8.2 10.5882L7.5 11.2882L6.225 10.0132V12.0632L5.525 12.7632L2.5 9.73818L3.2 9.03818H5.25L4 7.78818L7.55 4.23818C7.88333 3.90485 8.24167 3.66318 8.625 3.51318C9.00833 3.36318 9.4 3.28818 9.8 3.28818C10.2 3.28818 10.5917 3.36318 10.975 3.51318C11.3583 3.66318 11.7167 3.90485 12.05 4.23818L9.75 6.53818L11 7.78818L10.3 8.48818L12 10.1882L14.25 7.93818C14.1833 7.75485 14.1292 7.56318 14.0875 7.36318C14.0458 7.16318 14.025 6.96318 14.025 6.76318C14.025 5.77985 14.3625 4.95068 15.0375 4.27568C15.7125 3.60068 16.5417 3.26318 17.525 3.26318C17.775 3.26318 18.0125 3.28818 18.2375 3.33818C18.4625 3.38818 18.6917 3.46318 18.925 3.56318L16.45 6.03818L18.25 7.83818L20.725 5.36318C20.8417 5.59652 20.9208 5.82568 20.9625 6.05068C21.0042 6.27568 21.025 6.51318 21.025 6.76318C21.025 7.74652 20.6875 8.57568 20.0125 9.25068C19.3375 9.92568 18.5083 10.2632 17.525 10.2632C17.325 10.2632 17.125 10.2465 16.925 10.2132C16.725 10.1799 16.5333 10.1215 16.35 10.0382L5.1 21.2882Z" fill="url(#paint0_linear_841_10669)"/>
<defs>
<linearGradient id="paint0_linear_841_10669" x1="11.7625" y1="3.26318" x2="11.7625" y2="21.2882" gradientUnits="userSpaceOnUse">
<stop stop-color="#9D9D9D"/>
<stop offset="1" stop-color="#9D9D9D" stop-opacity="0.8"/>
</linearGradient>
</defs>
</svg>
