<svg width="40" height="41" viewBox="0 0 40 41" fill="none" xmlns="http://www.w3.org/2000/svg">
<path d="M14.9999 27.067C15.9166 27.067 16.7013 26.7406 17.3541 26.0879C18.0069 25.4351 18.3333 24.6504 18.3333 23.7337C18.3333 22.817 18.0069 22.0323 17.3541 21.3795C16.7013 20.7268 15.9166 20.4004 14.9999 20.4004C14.0833 20.4004 13.2985 20.7268 12.6458 21.3795C11.993 22.0323 11.6666 22.817 11.6666 23.7337C11.6666 24.6504 11.993 25.4351 12.6458 26.0879C13.2985 26.7406 14.0833 27.067 14.9999 27.067ZM24.9999 27.067C25.9166 27.067 26.7013 26.7406 27.3541 26.0879C28.0069 25.4351 28.3333 24.6504 28.3333 23.7337C28.3333 22.817 28.0069 22.0323 27.3541 21.3795C26.7013 20.7268 25.9166 20.4004 24.9999 20.4004C24.0833 20.4004 23.2985 20.7268 22.6458 21.3795C21.993 22.0323 21.6666 22.817 21.6666 23.7337C21.6666 24.6504 21.993 25.4351 22.6458 26.0879C23.2985 26.7406 24.0833 27.067 24.9999 27.067ZM19.9999 18.7337C20.9166 18.7337 21.7013 18.4073 22.3541 17.7545C23.0069 17.1018 23.3333 16.317 23.3333 15.4004C23.3333 14.4837 23.0069 13.699 22.3541 13.0462C21.7013 12.3934 20.9166 12.067 19.9999 12.067C19.0833 12.067 18.2985 12.3934 17.6458 13.0462C16.993 13.699 16.6666 14.4837 16.6666 15.4004C16.6666 16.317 16.993 17.1018 17.6458 17.7545C18.2985 18.4073 19.0833 18.7337 19.9999 18.7337ZM19.9999 37.067C17.6944 37.067 15.5277 36.6295 13.4999 35.7545C11.4721 34.8795 9.70825 33.692 8.20825 32.192C6.70825 30.692 5.52075 28.9281 4.64575 26.9004C3.77075 24.8726 3.33325 22.7059 3.33325 20.4004C3.33325 18.0948 3.77075 15.9281 4.64575 13.9004C5.52075 11.8726 6.70825 10.1087 8.20825 8.6087C9.70825 7.1087 11.4721 5.9212 13.4999 5.0462C15.5277 4.1712 17.6944 3.7337 19.9999 3.7337C22.3055 3.7337 24.4721 4.1712 26.4999 5.0462C28.5277 5.9212 30.2916 7.1087 31.7916 8.6087C33.2916 10.1087 34.4791 11.8726 35.3541 13.9004C36.2291 15.9281 36.6666 18.0948 36.6666 20.4004C36.6666 22.7059 36.2291 24.8726 35.3541 26.9004C34.4791 28.9281 33.2916 30.692 31.7916 32.192C30.2916 33.692 28.5277 34.8795 26.4999 35.7545C24.4721 36.6295 22.3055 37.067 19.9999 37.067Z" fill="url(#paint0_linear_833_10374)"/>
<defs>
<linearGradient id="paint0_linear_833_10374" x1="19.9999" y1="3.7337" x2="19.9999" y2="37.067" gradientUnits="userSpaceOnUse">
<stop stop-color="#9D9D9D"/>
<stop offset="1" stop-color="#9D9D9D" stop-opacity="0.8"/>
</linearGradient>
</defs>
</svg>
