<svg width="40" height="41" viewBox="0 0 40 41" fill="none" xmlns="http://www.w3.org/2000/svg">
<path d="M1.6665 38.7328V28.7328H4.99984V12.0662H1.6665V2.06616H11.6665V5.3995H28.3332V2.06616H38.3332V12.0662H34.9998V28.7328H38.3332V38.7328H28.3332V35.3995H11.6665V38.7328H1.6665ZM11.6665 32.0662H28.3332V28.7328H31.6665V12.0662H28.3332V8.73283H11.6665V12.0662H8.33317V28.7328H11.6665V32.0662ZM12.9998 27.0662L18.6665 12.0662H21.3332L26.9998 27.0662H24.4165L23.0832 23.2328H16.9998L15.6665 27.0662H12.9998ZM17.7498 21.0662H22.2498L20.0832 14.8162H19.9165L17.7498 21.0662Z" fill="url(#paint0_linear_808_5050)"/>
<defs>
<linearGradient id="paint0_linear_808_5050" x1="19.9998" y1="2.06616" x2="19.9998" y2="38.7328" gradientUnits="userSpaceOnUse">
<stop stop-color="#9D9D9D"/>
<stop offset="1" stop-color="#9D9D9D" stop-opacity="0.8"/>
</linearGradient>
</defs>
</svg>
