<svg width="40" height="41" viewBox="0 0 40 41" fill="none" xmlns="http://www.w3.org/2000/svg">
<path d="M18.3333 28.7327H21.6666V18.7327H18.3333V28.7327ZM19.9999 15.3993C20.4721 15.3993 20.868 15.2396 21.1874 14.9202C21.5069 14.6007 21.6666 14.2049 21.6666 13.7327C21.6666 13.2604 21.5069 12.8646 21.1874 12.5452C20.868 12.2257 20.4721 12.066 19.9999 12.066C19.5277 12.066 19.1319 12.2257 18.8124 12.5452C18.493 12.8646 18.3333 13.2604 18.3333 13.7327C18.3333 14.2049 18.493 14.6007 18.8124 14.9202C19.1319 15.2396 19.5277 15.3993 19.9999 15.3993ZM19.9999 37.066C17.6944 37.066 15.5277 36.6285 13.4999 35.7535C11.4721 34.8785 9.70825 33.691 8.20825 32.191C6.70825 30.691 5.52075 28.9271 4.64575 26.8993C3.77075 24.8716 3.33325 22.7049 3.33325 20.3993C3.33325 18.0938 3.77075 15.9271 4.64575 13.8993C5.52075 11.8716 6.70825 10.1077 8.20825 8.60767C9.70825 7.10767 11.4721 5.92017 13.4999 5.04517C15.5277 4.17017 17.6944 3.73267 19.9999 3.73267C22.3055 3.73267 24.4721 4.17017 26.4999 5.04517C28.5277 5.92017 30.2916 7.10767 31.7916 8.60767C33.2916 10.1077 34.4791 11.8716 35.3541 13.8993C36.2291 15.9271 36.6666 18.0938 36.6666 20.3993C36.6666 22.7049 36.2291 24.8716 35.3541 26.8993C34.4791 28.9271 33.2916 30.691 31.7916 32.191C30.2916 33.691 28.5277 34.8785 26.4999 35.7535C24.4721 36.6285 22.3055 37.066 19.9999 37.066Z" fill="url(#paint0_linear_808_5054)"/>
<defs>
<linearGradient id="paint0_linear_808_5054" x1="19.9999" y1="3.73267" x2="19.9999" y2="37.066" gradientUnits="userSpaceOnUse">
<stop stop-color="#9D9D9D"/>
<stop offset="1" stop-color="#9D9D9D" stop-opacity="0.8"/>
</linearGradient>
</defs>
</svg>
