<svg width="40" height="41" viewBox="0 0 40 41" fill="none" xmlns="http://www.w3.org/2000/svg">
<path d="M8.33333 35.4004C7.41667 35.4004 6.63194 35.074 5.97917 34.4212C5.32639 33.7684 5 32.9837 5 32.0671V8.73372C5 7.81706 5.32639 7.03234 5.97917 6.37956C6.63194 5.72678 7.41667 5.40039 8.33333 5.40039H18.3333V35.4004H8.33333ZM21.6667 35.4004V20.4004H35V32.0671C35 32.9837 34.6736 33.7684 34.0208 34.4212C33.3681 35.074 32.5833 35.4004 31.6667 35.4004H21.6667ZM21.6667 17.0671V5.40039H31.6667C32.5833 5.40039 33.3681 5.72678 34.0208 6.37956C34.6736 7.03234 35 7.81706 35 8.73372V17.0671H21.6667Z" fill="url(#paint0_linear_809_5075)"/>
<defs>
<linearGradient id="paint0_linear_809_5075" x1="20" y1="5.40039" x2="20" y2="35.4004" gradientUnits="userSpaceOnUse">
<stop stop-color="#9D9D9D"/>
<stop offset="1" stop-color="#9D9D9D" stop-opacity="0.8"/>
</linearGradient>
</defs>
</svg>
