<svg width="40" height="41" viewBox="0 0 40 41" fill="none" xmlns="http://www.w3.org/2000/svg">
<path d="M1.6665 33.734V29.0674C1.6665 28.1229 1.90956 27.2549 2.39567 26.4632C2.88178 25.6715 3.52762 25.0674 4.33317 24.6507C6.05539 23.7896 7.80539 23.1438 9.58317 22.7132C11.3609 22.2827 13.1665 22.0674 14.9998 22.0674C16.8332 22.0674 18.6387 22.2827 20.4165 22.7132C22.1943 23.1438 23.9443 23.7896 25.6665 24.6507C26.4721 25.0674 27.1179 25.6715 27.604 26.4632C28.0901 27.2549 28.3332 28.1229 28.3332 29.0674V33.734H1.6665ZM31.6665 33.734V28.734C31.6665 27.5118 31.3262 26.3382 30.6457 25.2132C29.9651 24.0882 28.9998 23.1229 27.7498 22.3174C29.1665 22.484 30.4998 22.7688 31.7498 23.1715C32.9998 23.5743 34.1665 24.0674 35.2498 24.6507C36.2498 25.2063 37.0137 25.8243 37.5415 26.5049C38.0693 27.1854 38.3332 27.9285 38.3332 28.734V33.734H31.6665ZM14.9998 20.4007C13.1665 20.4007 11.5971 19.7479 10.2915 18.4424C8.98595 17.1368 8.33317 15.5674 8.33317 13.734C8.33317 11.9007 8.98595 10.3313 10.2915 9.02572C11.5971 7.72016 13.1665 7.06738 14.9998 7.06738C16.8332 7.06738 18.4026 7.72016 19.7082 9.02572C21.0137 10.3313 21.6665 11.9007 21.6665 13.734C21.6665 15.5674 21.0137 17.1368 19.7082 18.4424C18.4026 19.7479 16.8332 20.4007 14.9998 20.4007ZM31.6665 13.734C31.6665 15.5674 31.0137 17.1368 29.7082 18.4424C28.4026 19.7479 26.8332 20.4007 24.9998 20.4007C24.6943 20.4007 24.3054 20.366 23.8332 20.2965C23.3609 20.2271 22.9721 20.1507 22.6665 20.0674C23.4165 19.1785 23.9929 18.1924 24.3957 17.109C24.7984 16.0257 24.9998 14.9007 24.9998 13.734C24.9998 12.5674 24.7984 11.4424 24.3957 10.359C23.9929 9.27572 23.4165 8.28961 22.6665 7.40072C23.0554 7.26183 23.4443 7.17155 23.8332 7.12988C24.2221 7.08822 24.6109 7.06738 24.9998 7.06738C26.8332 7.06738 28.4026 7.72016 29.7082 9.02572C31.0137 10.3313 31.6665 11.9007 31.6665 13.734Z" fill="url(#paint0_linear_841_10701)"/>
<defs>
<linearGradient id="paint0_linear_841_10701" x1="19.9998" y1="7.06738" x2="19.9998" y2="33.734" gradientUnits="userSpaceOnUse">
<stop stop-color="#9D9D9D"/>
<stop offset="1" stop-color="#9D9D9D" stop-opacity="0.8"/>
</linearGradient>
</defs>
</svg>
