<svg width="40" height="41" viewBox="0 0 40 41" fill="none" xmlns="http://www.w3.org/2000/svg">
<path d="M23.3332 16.9003V14.067C24.2498 13.6781 25.1873 13.3865 26.1457 13.192C27.104 12.9976 28.1109 12.9003 29.1665 12.9003C29.8887 12.9003 30.5971 12.9559 31.2915 13.067C31.9859 13.1781 32.6665 13.317 33.3332 13.4837V16.1503C32.6665 15.9003 31.9929 15.7128 31.3123 15.5878C30.6318 15.4628 29.9165 15.4003 29.1665 15.4003C28.1109 15.4003 27.0971 15.5323 26.1248 15.7962C25.1526 16.0601 24.2221 16.4281 23.3332 16.9003ZM23.3332 26.067V23.2337C24.2498 22.8448 25.1873 22.5531 26.1457 22.3587C27.104 22.1642 28.1109 22.067 29.1665 22.067C29.8887 22.067 30.5971 22.1226 31.2915 22.2337C31.9859 22.3448 32.6665 22.4837 33.3332 22.6503V25.317C32.6665 25.067 31.9929 24.8795 31.3123 24.7545C30.6318 24.6295 29.9165 24.567 29.1665 24.567C28.1109 24.567 27.0971 24.692 26.1248 24.942C25.1526 25.192 24.2221 25.567 23.3332 26.067ZM23.3332 21.4837V18.6503C24.2498 18.2615 25.1873 17.9698 26.1457 17.7753C27.104 17.5809 28.1109 17.4837 29.1665 17.4837C29.8887 17.4837 30.5971 17.5392 31.2915 17.6503C31.9859 17.7615 32.6665 17.9003 33.3332 18.067V20.7337C32.6665 20.4837 31.9929 20.2962 31.3123 20.1712C30.6318 20.0462 29.9165 19.9837 29.1665 19.9837C28.1109 19.9837 27.0971 20.1156 26.1248 20.3795C25.1526 20.6434 24.2221 21.0115 23.3332 21.4837ZM21.6665 28.817C22.8887 28.2337 24.1179 27.7962 25.354 27.5045C26.5901 27.2128 27.8609 27.067 29.1665 27.067C30.1665 27.067 31.1457 27.1503 32.104 27.317C33.0623 27.4837 34.0276 27.7337 34.9998 28.067V11.567C34.0832 11.1781 33.1318 10.8865 32.1457 10.692C31.1596 10.4976 30.1665 10.4003 29.1665 10.4003C27.8609 10.4003 26.5693 10.567 25.2915 10.9003C24.0137 11.2337 22.8054 11.7337 21.6665 12.4003V28.817ZM19.9998 33.7337C18.6665 32.6781 17.2221 31.8587 15.6665 31.2753C14.1109 30.692 12.4998 30.4003 10.8332 30.4003C9.6665 30.4003 8.52067 30.5531 7.39567 30.8587C6.27067 31.1642 5.19428 31.5948 4.1665 32.1503C3.58317 32.4559 3.02067 32.442 2.479 32.1087C1.93734 31.7753 1.6665 31.2892 1.6665 30.6503V10.567C1.6665 10.2615 1.74289 9.96979 1.89567 9.69202C2.04845 9.41424 2.27762 9.20591 2.58317 9.06702C3.88873 8.42813 5.229 7.93507 6.604 7.58785C7.979 7.24063 9.38873 7.06702 10.8332 7.06702C12.4443 7.06702 14.0207 7.27535 15.5623 7.69202C17.104 8.10868 18.5832 8.73368 19.9998 9.56702C21.4165 8.73368 22.8957 8.10868 24.4373 7.69202C25.979 7.27535 27.5554 7.06702 29.1665 7.06702C30.6109 7.06702 32.0207 7.24063 33.3957 7.58785C34.7707 7.93507 36.111 8.42813 37.4165 9.06702C37.7221 9.20591 37.9512 9.41424 38.104 9.69202C38.2568 9.96979 38.3332 10.2615 38.3332 10.567V30.6503C38.3332 31.2892 38.0623 31.7753 37.5207 32.1087C36.979 32.442 36.4165 32.4559 35.8332 32.1503C34.8054 31.5948 33.729 31.1642 32.604 30.8587C31.479 30.5531 30.3332 30.4003 29.1665 30.4003C27.4998 30.4003 25.8887 30.692 24.3332 31.2753C22.7776 31.8587 21.3332 32.6781 19.9998 33.7337Z" fill="url(#paint0_linear_809_5081)"/>
<defs>
<linearGradient id="paint0_linear_809_5081" x1="19.9998" y1="7.06702" x2="19.9998" y2="33.7337" gradientUnits="userSpaceOnUse">
<stop stop-color="#9D9D9D"/>
<stop offset="1" stop-color="#9D9D9D" stop-opacity="0.8"/>
</linearGradient>
</defs>
</svg>
