<svg width="40" height="41" viewBox="0 0 40 41" fill="none" xmlns="http://www.w3.org/2000/svg">
<path d="M1.66675 38.7337V28.7337H5.00008V12.067H1.66675V2.06702H11.6667V5.40035H28.3334V2.06702H38.3334V12.067H35.0001V28.7337H38.3334V38.7337H28.3334V35.4004H11.6667V38.7337H1.66675ZM11.6667 32.067H28.3334V28.7337H31.6667V12.067H28.3334V8.73368H11.6667V12.067H8.33342V28.7337H11.6667V32.067ZM13.0001 27.067L18.6667 12.067H21.3334L27.0001 27.067H24.4167L23.0834 23.2337H17.0001L15.6667 27.067H13.0001ZM17.7501 21.067H22.2501L20.0834 14.817H19.9167L17.7501 21.067Z" fill="url(#paint0_linear_809_5077)"/>
<defs>
<linearGradient id="paint0_linear_809_5077" x1="20.0001" y1="2.06702" x2="20.0001" y2="38.7337" gradientUnits="userSpaceOnUse">
<stop stop-color="#9D9D9D"/>
<stop offset="1" stop-color="#9D9D9D" stop-opacity="0.8"/>
</linearGradient>
</defs>
</svg>
