<svg width="40" height="41" viewBox="0 0 40 41" fill="none" xmlns="http://www.w3.org/2000/svg">
<path d="M13.3333 28.7337C13.8056 28.7337 14.2014 28.574 14.5208 28.2546C14.8403 27.9351 15 27.5393 15 27.0671C15 26.5948 14.8403 26.199 14.5208 25.8796C14.2014 25.5601 13.8056 25.4004 13.3333 25.4004C12.8611 25.4004 12.4653 25.5601 12.1458 25.8796C11.8264 26.199 11.6667 26.5948 11.6667 27.0671C11.6667 27.5393 11.8264 27.9351 12.1458 28.2546C12.4653 28.574 12.8611 28.7337 13.3333 28.7337ZM13.3333 22.0671C13.8056 22.0671 14.2014 21.9073 14.5208 21.5879C14.8403 21.2684 15 20.8726 15 20.4004C15 19.9282 14.8403 19.5323 14.5208 19.2129C14.2014 18.8934 13.8056 18.7337 13.3333 18.7337C12.8611 18.7337 12.4653 18.8934 12.1458 19.2129C11.8264 19.5323 11.6667 19.9282 11.6667 20.4004C11.6667 20.8726 11.8264 21.2684 12.1458 21.5879C12.4653 21.9073 12.8611 22.0671 13.3333 22.0671ZM13.3333 15.4004C13.8056 15.4004 14.2014 15.2407 14.5208 14.9212C14.8403 14.6018 15 14.2059 15 13.7337C15 13.2615 14.8403 12.8657 14.5208 12.5462C14.2014 12.2268 13.8056 12.0671 13.3333 12.0671C12.8611 12.0671 12.4653 12.2268 12.1458 12.5462C11.8264 12.8657 11.6667 13.2615 11.6667 13.7337C11.6667 14.2059 11.8264 14.6018 12.1458 14.9212C12.4653 15.2407 12.8611 15.4004 13.3333 15.4004ZM18.3333 28.7337H28.3333V25.4004H18.3333V28.7337ZM18.3333 22.0671H28.3333V18.7337H18.3333V22.0671ZM18.3333 15.4004H28.3333V12.0671H18.3333V15.4004ZM8.33333 35.4004C7.41667 35.4004 6.63194 35.074 5.97917 34.4212C5.32639 33.7684 5 32.9837 5 32.0671V8.73372C5 7.81706 5.32639 7.03234 5.97917 6.37956C6.63194 5.72678 7.41667 5.40039 8.33333 5.40039H31.6667C32.5833 5.40039 33.3681 5.72678 34.0208 6.37956C34.6736 7.03234 35 7.81706 35 8.73372V32.0671C35 32.9837 34.6736 33.7684 34.0208 34.4212C33.3681 35.074 32.5833 35.4004 31.6667 35.4004H8.33333Z" fill="url(#paint0_linear_833_10378)"/>
<defs>
<linearGradient id="paint0_linear_833_10378" x1="20" y1="5.40039" x2="20" y2="35.4004" gradientUnits="userSpaceOnUse">
<stop stop-color="#9D9D9D"/>
<stop offset="1" stop-color="#9D9D9D" stop-opacity="0.8"/>
</linearGradient>
</defs>
</svg>
