<svg width="40" height="41" viewBox="0 0 40 41" fill="none" xmlns="http://www.w3.org/2000/svg">
<path d="M19.9998 15.4004L14.1665 9.5671L19.9998 3.73376L25.8332 9.5671L19.9998 15.4004ZM1.6665 33.7338V27.0671C1.6665 26.1227 1.99289 25.331 2.64567 24.6921C3.29845 24.0532 4.08317 23.7338 4.99984 23.7338H10.4582C11.0137 23.7338 11.5415 23.8727 12.0415 24.1504C12.5415 24.4282 12.9443 24.8032 13.2498 25.2754C14.0554 26.3588 15.0484 27.206 16.229 27.8171C17.4096 28.4282 18.6665 28.7338 19.9998 28.7338C21.3609 28.7338 22.6318 28.4282 23.8123 27.8171C24.9929 27.206 25.9721 26.3588 26.7498 25.2754C27.1109 24.8032 27.5346 24.4282 28.0207 24.1504C28.5068 23.8727 29.0137 23.7338 29.5415 23.7338H34.9998C35.9443 23.7338 36.736 24.0532 37.3748 24.6921C38.0137 25.331 38.3332 26.1227 38.3332 27.0671V33.7338H26.6665V29.9421C25.6943 30.6365 24.6457 31.1643 23.5207 31.5254C22.3957 31.8865 21.2221 32.0671 19.9998 32.0671C18.8054 32.0671 17.6387 31.8796 16.4998 31.5046C15.3609 31.1296 14.3054 30.5949 13.3332 29.9004V33.7338H1.6665ZM6.6665 22.0671C5.27762 22.0671 4.09706 21.581 3.12484 20.6088C2.15262 19.6365 1.6665 18.456 1.6665 17.0671C1.6665 15.6504 2.15262 14.4629 3.12484 13.5046C4.09706 12.5463 5.27762 12.0671 6.6665 12.0671C8.08317 12.0671 9.27067 12.5463 10.229 13.5046C11.1873 14.4629 11.6665 15.6504 11.6665 17.0671C11.6665 18.456 11.1873 19.6365 10.229 20.6088C9.27067 21.581 8.08317 22.0671 6.6665 22.0671ZM33.3332 22.0671C31.9443 22.0671 30.7637 21.581 29.7915 20.6088C28.8193 19.6365 28.3332 18.456 28.3332 17.0671C28.3332 15.6504 28.8193 14.4629 29.7915 13.5046C30.7637 12.5463 31.9443 12.0671 33.3332 12.0671C34.7498 12.0671 35.9373 12.5463 36.8957 13.5046C37.854 14.4629 38.3332 15.6504 38.3332 17.0671C38.3332 18.456 37.854 19.6365 36.8957 20.6088C35.9373 21.581 34.7498 22.0671 33.3332 22.0671Z" fill="url(#paint0_linear_809_5089)"/>
<defs>
<linearGradient id="paint0_linear_809_5089" x1="19.9998" y1="3.73376" x2="19.9998" y2="33.7338" gradientUnits="userSpaceOnUse">
<stop stop-color="#9D9D9D"/>
<stop offset="1" stop-color="#9D9D9D" stop-opacity="0.8"/>
</linearGradient>
</defs>
</svg>
