<svg width="24" height="25" viewBox="0 0 24 25" fill="none" xmlns="http://www.w3.org/2000/svg">
<path d="M8.8 11.2381L10.95 9.06309L9.55 7.63809L8.45 8.73809L7.05 7.33809L8.125 6.23809L7 5.11309L4.825 7.28809L8.8 11.2381ZM17 19.4631L19.175 17.2881L18.05 16.1631L16.95 17.2381L15.55 15.8381L16.625 14.7381L15.2 13.3381L13.05 15.4881L17 19.4631ZM16.225 6.71309L17.625 8.11309L19.025 6.71309L17.6 5.28809L16.225 6.71309ZM7.25 21.2881H3V17.0381L7.375 12.6631L2 7.28809L7 2.28809L12.4 7.68809L16.175 3.88809C16.375 3.68809 16.6 3.53809 16.85 3.43809C17.1 3.33809 17.3583 3.28809 17.625 3.28809C17.8917 3.28809 18.15 3.33809 18.4 3.43809C18.65 3.53809 18.875 3.68809 19.075 3.88809L20.4 5.23809C20.6 5.43809 20.75 5.66309 20.85 5.91309C20.95 6.16309 21 6.42142 21 6.68809C21 6.95475 20.95 7.20892 20.85 7.45059C20.75 7.69225 20.6 7.91309 20.4 8.11309L16.625 11.9131L22 17.2881L17 22.2881L11.625 16.9131L7.25 21.2881Z" fill="url(#paint0_linear_841_10671)"/>
<defs>
<linearGradient id="paint0_linear_841_10671" x1="12" y1="2.28809" x2="12" y2="22.2881" gradientUnits="userSpaceOnUse">
<stop stop-color="#9D9D9D"/>
<stop offset="1" stop-color="#9D9D9D" stop-opacity="0.8"/>
</linearGradient>
</defs>
</svg>
