<svg width="40" height="41" viewBox="0 0 40 41" fill="none" xmlns="http://www.w3.org/2000/svg">
<path d="M21.6665 33.7328V27.0662H24.9998V30.3995H28.3332V33.7328H21.6665ZM31.6665 33.7328V30.3995H34.9998V27.0662H38.3332V33.7328H31.6665ZM21.6665 13.7328V7.06616H28.3332V10.3995H24.9998V13.7328H21.6665ZM34.9998 13.7328V10.3995H31.6665V7.06616H38.3332V13.7328H34.9998ZM28.3332 27.0662L25.9998 24.7328L28.6248 22.0662H9.99984V18.7328H28.6248L25.9998 16.0662L28.3332 13.7328L34.9998 20.3995L28.3332 27.0662ZM1.6665 33.7328V7.06616H18.3332V15.3995H6.6665V25.3995H18.3332V33.7328H1.6665Z" fill="url(#paint0_linear_808_5052)"/>
<defs>
<linearGradient id="paint0_linear_808_5052" x1="19.9998" y1="7.06616" x2="19.9998" y2="33.7328" gradientUnits="userSpaceOnUse">
<stop stop-color="#9D9D9D"/>
<stop offset="1" stop-color="#9D9D9D" stop-opacity="0.8"/>
</linearGradient>
</defs>
</svg>
