<svg width="40" height="41" viewBox="0 0 40 41" fill="none" xmlns="http://www.w3.org/2000/svg">
<path d="M5.00008 35.4007C4.77786 35.4007 4.56258 35.3521 4.35425 35.2549C4.14591 35.1577 3.9723 35.0396 3.83341 34.9007C3.50008 34.5952 3.33341 34.2132 3.33341 33.7549C3.33341 33.2966 3.48619 32.9007 3.79175 32.5674C4.31953 32.0118 4.95147 31.6785 5.68758 31.5674C6.42369 31.4563 7.16675 31.4702 7.91675 31.6091C8.13897 31.6646 8.3473 31.7202 8.54175 31.7757C8.73619 31.8313 8.90286 31.7896 9.04175 31.6507C9.20842 31.4841 9.27092 31.2757 9.22925 31.0257C9.18758 30.7757 9.13897 30.5396 9.08342 30.3174C8.9723 29.5674 8.95842 28.8243 9.04175 28.0882C9.12508 27.3521 9.43064 26.7063 9.95842 26.1507C10.4862 25.5952 11.1181 25.2618 11.8542 25.1507C12.5904 25.0396 13.3334 25.0535 14.0834 25.1924C14.3056 25.2479 14.5209 25.3035 14.7292 25.3591C14.9376 25.4146 15.1112 25.3729 15.2501 25.2341C15.4167 25.0674 15.4723 24.8591 15.4167 24.6091C15.3612 24.3591 15.3056 24.1229 15.2501 23.9007C15.139 23.1507 15.1251 22.4077 15.2084 21.6716C15.2917 20.9354 15.5973 20.2896 16.1251 19.7341C16.6529 19.1785 17.2848 18.8452 18.0209 18.7341C18.757 18.6229 19.5001 18.6368 20.2501 18.7757C20.4723 18.8313 20.6876 18.8868 20.8959 18.9424C21.1042 18.9979 21.2779 18.9563 21.4167 18.8174C21.5834 18.6507 21.639 18.4424 21.5834 18.1924C21.5279 17.9424 21.4723 17.7063 21.4167 17.484C21.3056 16.734 21.2987 15.991 21.3959 15.2549C21.4931 14.5188 21.8056 13.8729 22.3334 13.3174C22.8612 12.7618 23.4931 12.4285 24.2292 12.3174C24.9654 12.2063 25.7084 12.2202 26.4584 12.359C26.6806 12.4146 26.8959 12.4702 27.1042 12.5257C27.3126 12.5813 27.4862 12.5396 27.6251 12.4007C27.7917 12.234 27.8473 12.0257 27.7917 11.7757C27.7362 11.5257 27.6806 11.2896 27.6251 11.0674C27.514 10.3174 27.507 9.57433 27.6042 8.83822C27.7015 8.10211 28.014 7.45627 28.5417 6.90072C29.0695 6.34516 29.7015 6.01183 30.4376 5.90072C31.1737 5.78961 31.9167 5.80349 32.6667 5.94238C32.889 5.99794 33.1042 6.04655 33.3126 6.08822C33.5209 6.12988 33.6945 6.08127 33.8334 5.94238C34.139 5.60905 34.5209 5.44238 34.9792 5.44238C35.4376 5.44238 35.8334 5.59516 36.1667 5.90072C36.5001 6.20627 36.6667 6.58822 36.6667 7.04655C36.6667 7.50488 36.514 7.90072 36.2084 8.23405C35.6806 8.78961 35.0487 9.12988 34.3126 9.25488C33.5765 9.37988 32.8334 9.37294 32.0834 9.23405C31.8612 9.17849 31.6459 9.12294 31.4376 9.06738C31.2292 9.01183 31.0556 9.05349 30.9167 9.19238C30.7501 9.35905 30.6945 9.56738 30.7501 9.81738C30.8056 10.0674 30.8612 10.3035 30.9167 10.5257C31.0279 11.2757 31.0348 12.0188 30.9376 12.7549C30.8404 13.491 30.5279 14.1368 30.0001 14.6924C29.4723 15.2479 28.8404 15.5813 28.1042 15.6924C27.3681 15.8035 26.6251 15.7896 25.8751 15.6507C25.6529 15.5952 25.4445 15.5396 25.2501 15.484C25.0556 15.4285 24.889 15.4702 24.7501 15.609C24.5834 15.7757 24.5209 15.984 24.5626 16.234C24.6042 16.484 24.6529 16.7202 24.7084 16.9424C24.8195 17.6924 24.8334 18.4354 24.7501 19.1716C24.6667 19.9077 24.3612 20.5535 23.8334 21.1091C23.3056 21.6368 22.6737 21.9632 21.9376 22.0882C21.2015 22.2132 20.4584 22.2063 19.7084 22.0674C19.4862 22.0118 19.2779 21.9632 19.0834 21.9216C18.889 21.8799 18.7223 21.9285 18.5834 22.0674C18.4167 22.2341 18.3542 22.4354 18.3959 22.6716C18.4376 22.9077 18.4862 23.1368 18.5417 23.3591C18.6529 24.1091 18.6667 24.8521 18.5834 25.5882C18.5001 26.3243 18.1945 26.9702 17.6667 27.5257C17.139 28.0813 16.5001 28.4146 15.7501 28.5257C15.0001 28.6368 14.2501 28.6229 13.5001 28.4841C13.2779 28.4285 13.0695 28.3799 12.8751 28.3382C12.6806 28.2966 12.514 28.3452 12.3751 28.4841C12.2084 28.6507 12.1529 28.8521 12.2084 29.0882C12.264 29.3243 12.3195 29.5535 12.3751 29.7757C12.4862 30.5257 12.4931 31.2688 12.3959 32.0049C12.2987 32.741 11.9862 33.3868 11.4584 33.9424C10.9306 34.4979 10.2987 34.8313 9.56258 34.9424C8.82647 35.0535 8.08342 35.0396 7.33342 34.9007C7.11119 34.8452 6.90286 34.7966 6.70842 34.7549C6.51397 34.7132 6.3473 34.7618 6.20842 34.9007C6.04175 35.0674 5.85425 35.1924 5.64591 35.2757C5.43758 35.3591 5.2223 35.4007 5.00008 35.4007ZM10.0001 18.7341C7.69453 18.7341 5.72925 17.9215 4.10425 16.2965C2.47925 14.6715 1.66675 12.7063 1.66675 10.4007C1.66675 8.06738 2.47925 6.09516 4.10425 4.48405C5.72925 2.87294 7.69453 2.06738 10.0001 2.06738C12.3334 2.06738 14.3056 2.87294 15.9167 4.48405C17.5279 6.09516 18.3334 8.06738 18.3334 10.4007C18.3334 12.7063 17.5279 14.6715 15.9167 16.2965C14.3056 17.9215 12.3334 18.7341 10.0001 18.7341ZM26.6667 38.7341C25.7501 38.7341 24.9654 38.4077 24.3126 37.7549C23.6598 37.1021 23.3334 36.3174 23.3334 35.4007V27.0674C23.3334 26.1507 23.6598 25.366 24.3126 24.7132C24.9654 24.0604 25.7501 23.7341 26.6667 23.7341H35.0001C35.9167 23.7341 36.7015 24.0604 37.3542 24.7132C38.007 25.366 38.3334 26.1507 38.3334 27.0674V35.4007C38.3334 36.3174 38.007 37.1021 37.3542 37.7549C36.7015 38.4077 35.9167 38.7341 35.0001 38.7341H26.6667Z" fill="url(#paint0_linear_841_10703)"/>
<defs>
<linearGradient id="paint0_linear_841_10703" x1="20.0001" y1="2.06738" x2="20.0001" y2="38.7341" gradientUnits="userSpaceOnUse">
<stop stop-color="#9D9D9D"/>
<stop offset="1" stop-color="#9D9D9D" stop-opacity="0.8"/>
</linearGradient>
</defs>
</svg>
