<svg width="40" height="41" viewBox="0 0 40 41" fill="none" xmlns="http://www.w3.org/2000/svg">
<path d="M26.6668 35.4007L26.1668 32.9007C25.8335 32.7618 25.521 32.616 25.2293 32.4632C24.9377 32.3104 24.6391 32.1229 24.3335 31.9007L21.9168 32.6507L20.2502 29.8174L22.1668 28.1507C22.1113 27.7618 22.0835 27.4007 22.0835 27.0674C22.0835 26.7341 22.1113 26.3729 22.1668 25.9841L20.2502 24.3174L21.9168 21.484L24.3335 22.234C24.6391 22.0118 24.9377 21.8243 25.2293 21.6715C25.521 21.5188 25.8335 21.3729 26.1668 21.234L26.6668 18.734H30.0002L30.5002 21.234C30.8335 21.3729 31.146 21.5257 31.4377 21.6924C31.7293 21.859 32.0279 22.0674 32.3335 22.3174L34.7502 21.484L36.4168 24.4007L34.5002 26.0674C34.5557 26.4007 34.5835 26.7479 34.5835 27.1091C34.5835 27.4702 34.5557 27.8174 34.5002 28.1507L36.4168 29.8174L34.7502 32.6507L32.3335 31.9007C32.0279 32.1229 31.7293 32.3104 31.4377 32.4632C31.146 32.616 30.8335 32.7618 30.5002 32.9007L30.0002 35.4007H26.6668ZM3.3335 33.7341V29.0674C3.3335 28.1507 3.56961 27.2896 4.04183 26.4841C4.51405 25.6785 5.16683 25.0674 6.00016 24.6507C7.41683 23.9285 9.01405 23.3174 10.7918 22.8174C12.5696 22.3174 14.5279 22.0674 16.6668 22.0674H17.2502C17.4168 22.0674 17.5835 22.0952 17.7502 22.1507C16.9446 24.1507 16.6113 26.1368 16.7502 28.1091C16.8891 30.0813 17.5557 31.9563 18.7502 33.7341H3.3335ZM28.3335 30.4007C29.2502 30.4007 30.0349 30.0743 30.6877 29.4216C31.3404 28.7688 31.6668 27.9841 31.6668 27.0674C31.6668 26.1507 31.3404 25.366 30.6877 24.7132C30.0349 24.0604 29.2502 23.7341 28.3335 23.7341C27.4168 23.7341 26.6321 24.0604 25.9793 24.7132C25.3266 25.366 25.0002 26.1507 25.0002 27.0674C25.0002 27.9841 25.3266 28.7688 25.9793 29.4216C26.6321 30.0743 27.4168 30.4007 28.3335 30.4007ZM16.6668 20.4007C14.8335 20.4007 13.2641 19.7479 11.9585 18.4424C10.6529 17.1368 10.0002 15.5674 10.0002 13.734C10.0002 11.9007 10.6529 10.3313 11.9585 9.02572C13.2641 7.72016 14.8335 7.06738 16.6668 7.06738C18.5002 7.06738 20.0696 7.72016 21.3752 9.02572C22.6807 10.3313 23.3335 11.9007 23.3335 13.734C23.3335 15.5674 22.6807 17.1368 21.3752 18.4424C20.0696 19.7479 18.5002 20.4007 16.6668 20.4007Z" fill="url(#paint0_linear_841_10699)"/>
<defs>
<linearGradient id="paint0_linear_841_10699" x1="19.8752" y1="7.06738" x2="19.8752" y2="35.4007" gradientUnits="userSpaceOnUse">
<stop stop-color="#9D9D9D"/>
<stop offset="1" stop-color="#9D9D9D" stop-opacity="0.8"/>
</linearGradient>
</defs>
</svg>
