<svg width="40" height="41" viewBox="0 0 40 41" fill="none" xmlns="http://www.w3.org/2000/svg">
<path d="M26.6666 37.2674V33.5174C25.111 33.0174 23.8055 32.1285 22.7499 30.8507C21.6944 29.573 21.0833 28.1007 20.9166 26.4341H24.2499C24.4721 27.6285 25.0346 28.6216 25.9374 29.4132C26.8402 30.2049 27.9166 30.6007 29.1666 30.6007H34.1666C34.861 30.6007 35.4513 30.8438 35.9374 31.3299C36.4235 31.816 36.6666 32.4063 36.6666 33.1007V37.2674H26.6666ZM31.6666 28.9341C30.7499 28.9341 29.9652 28.6077 29.3124 27.9549C28.6596 27.3021 28.3333 26.5174 28.3333 25.6007C28.3333 24.6841 28.6596 23.8994 29.3124 23.2466C29.9652 22.5938 30.7499 22.2674 31.6666 22.2674C32.5833 22.2674 33.368 22.5938 34.0208 23.2466C34.6735 23.8994 34.9999 24.6841 34.9999 25.6007C34.9999 26.5174 34.6735 27.3021 34.0208 27.9549C33.368 28.6077 32.5833 28.9341 31.6666 28.9341ZM14.9999 23.9341C14.9999 19.7674 16.4583 16.2257 19.3749 13.3091C22.2916 10.3924 25.8333 8.93408 29.9999 8.93408V12.2674C26.7499 12.2674 23.993 13.3994 21.7291 15.6632C19.4652 17.9271 18.3333 20.6841 18.3333 23.9341H14.9999ZM21.6666 23.9341C21.6666 21.6285 22.4791 19.6632 24.1041 18.0382C25.7291 16.4132 27.6944 15.6007 29.9999 15.6007V18.9341C28.611 18.9341 27.4305 19.4202 26.4583 20.3924C25.486 21.3646 24.9999 22.5452 24.9999 23.9341H21.6666ZM3.33325 18.9341V14.7674C3.33325 14.073 3.57631 13.4827 4.06242 12.9966C4.54853 12.5105 5.13881 12.2674 5.83325 12.2674H10.8333C12.0833 12.2674 13.1596 11.8716 14.0624 11.0799C14.9652 10.2882 15.5277 9.29519 15.7499 8.10075H19.0833C18.9166 9.76742 18.3055 11.2396 17.2499 12.5174C16.1944 13.7952 14.8888 14.6841 13.3333 15.1841V18.9341H3.33325ZM8.33325 10.6007C7.41658 10.6007 6.63186 10.2744 5.97909 9.62158C5.32631 8.9688 4.99992 8.18408 4.99992 7.26742C4.99992 6.35075 5.32631 5.56603 5.97909 4.91325C6.63186 4.26047 7.41658 3.93408 8.33325 3.93408C9.24992 3.93408 10.0346 4.26047 10.6874 4.91325C11.3402 5.56603 11.6666 6.35075 11.6666 7.26742C11.6666 8.18408 11.3402 8.9688 10.6874 9.62158C10.0346 10.2744 9.24992 10.6007 8.33325 10.6007Z" fill="url(#paint0_linear_841_10645)"/>
<defs>
<linearGradient id="paint0_linear_841_10645" x1="19.9999" y1="3.93408" x2="19.9999" y2="37.2674" gradientUnits="userSpaceOnUse">
<stop stop-color="#9D9D9D"/>
<stop offset="1" stop-color="#9D9D9D" stop-opacity="0.8"/>
</linearGradient>
</defs>
</svg>
