<svg width="24" height="25" viewBox="0 0 24 25" fill="none" xmlns="http://www.w3.org/2000/svg">
<path d="M5.3 18.3131C4.58333 17.5131 4.02083 16.5964 3.6125 15.5631C3.20417 14.5298 3 13.4381 3 12.2881C3 9.78809 3.875 7.66309 5.625 5.91309C7.375 4.16309 9.5 3.28809 12 3.28809V1.28809L17 5.03809L12 8.78809V6.78809C10.4833 6.78809 9.1875 7.32559 8.1125 8.40059C7.0375 9.47559 6.5 10.7714 6.5 12.2881C6.5 13.0548 6.64583 13.7714 6.9375 14.4381C7.22917 15.1048 7.625 15.6881 8.125 16.1881L5.3 18.3131ZM12 23.2881L7 19.5381L12 15.7881V17.7881C13.5167 17.7881 14.8125 17.2506 15.8875 16.1756C16.9625 15.1006 17.5 13.8048 17.5 12.2881C17.5 11.5214 17.3542 10.8048 17.0625 10.1381C16.7708 9.47142 16.375 8.88809 15.875 8.38809L18.7 6.26309C19.4167 7.06309 19.9792 7.97975 20.3875 9.01309C20.7958 10.0464 21 11.1381 21 12.2881C21 14.7881 20.125 16.9131 18.375 18.6631C16.625 20.4131 14.5 21.2881 12 21.2881V23.2881Z" fill="url(#paint0_linear_841_10663)"/>
<defs>
<linearGradient id="paint0_linear_841_10663" x1="12" y1="1.28809" x2="12" y2="23.2881" gradientUnits="userSpaceOnUse">
<stop stop-color="#9D9D9D"/>
<stop offset="1" stop-color="#9D9D9D" stop-opacity="0.8"/>
</linearGradient>
</defs>
</svg>
