<svg width="32" height="33" viewBox="0 0 32 33" fill="none" xmlns="http://www.w3.org/2000/svg">
<path d="M16 13.4212L10.6667 18.7546L12.5333 20.6212L14.6667 18.4879V24.0879H17.3333V18.4879L19.4667 20.6212L21.3333 18.7546L16 13.4212ZM6.66667 10.7546V25.4212H25.3333V10.7546H6.66667ZM6.66667 28.0879C5.93333 28.0879 5.30556 27.8268 4.78333 27.3046C4.26111 26.7823 4 26.1546 4 25.4212V8.78789C4 8.47678 4.05 8.17678 4.15 7.88789C4.25 7.599 4.4 7.33234 4.6 7.08789L6.26667 5.05456C6.51111 4.74345 6.81667 4.50456 7.18333 4.33789C7.55 4.17122 7.93333 4.08789 8.33333 4.08789H23.6667C24.0667 4.08789 24.45 4.17122 24.8167 4.33789C25.1833 4.50456 25.4889 4.74345 25.7333 5.05456L27.4 7.08789C27.6 7.33234 27.75 7.599 27.85 7.88789C27.95 8.17678 28 8.47678 28 8.78789V25.4212C28 26.1546 27.7389 26.7823 27.2167 27.3046C26.6944 27.8268 26.0667 28.0879 25.3333 28.0879H6.66667ZM7.2 8.08789H24.8L23.6667 6.75456H8.33333L7.2 8.08789Z" fill="url(#paint0_linear_791_4574)"/>
<defs>
<linearGradient id="paint0_linear_791_4574" x1="16" y1="4.08789" x2="16" y2="28.0879" gradientUnits="userSpaceOnUse">
<stop stop-color="#4F8DF9"/>
<stop offset="1" stop-color="#4F8DF9" stop-opacity="0.4"/>
</linearGradient>
</defs>
</svg>
