<svg width="32" height="33" viewBox="0 0 32 33" fill="none" xmlns="http://www.w3.org/2000/svg">
<path d="M27.4665 28.3997L21.1998 22.1331C20.2887 22.8442 19.2832 23.3997 18.1832 23.7997C17.0832 24.1997 15.9109 24.3997 14.6665 24.3997C12.6665 24.3997 10.8609 23.9109 9.24984 22.9331C7.63873 21.9553 6.3665 20.6664 5.43317 19.0664H8.69984C9.45539 19.8886 10.3387 20.5386 11.3498 21.0164C12.3609 21.4942 13.4665 21.7331 14.6665 21.7331C16.8887 21.7331 18.7776 20.9553 20.3332 19.3997C21.8887 17.8442 22.6665 15.9553 22.6665 13.7331C22.6665 11.5109 21.8887 9.62196 20.3332 8.06641C18.7776 6.51085 16.8887 5.73307 14.6665 5.73307C12.5776 5.73307 10.7721 6.43863 9.24984 7.84974C7.72761 9.26085 6.87761 10.9997 6.69984 13.0664H4.03317C4.21095 10.2442 5.3165 7.87196 7.34984 5.94974C9.38317 4.02752 11.8221 3.06641 14.6665 3.06641C17.6443 3.06641 20.1665 4.09974 22.2332 6.16641C24.2998 8.23307 25.3332 10.7553 25.3332 13.7331C25.3332 14.9775 25.1332 16.1497 24.7332 17.2497C24.3332 18.3497 23.7776 19.3553 23.0665 20.2664L29.3332 26.5331L27.4665 28.3997ZM13.2332 19.0664L11.1332 12.1331L9.39984 17.0664H2.6665V15.0664H7.99984L10.1998 8.73307H12.1998L14.2332 15.5331L15.6665 11.0664H17.6665L19.6665 15.0664H20.6665V17.0664H18.4332L16.8665 13.9331L15.1998 19.0664H13.2332Z" fill="url(#paint0_linear_791_4247)"/>
<defs>
<linearGradient id="paint0_linear_791_4247" x1="15.9998" y1="3.06641" x2="15.9998" y2="28.3997" gradientUnits="userSpaceOnUse">
<stop stop-color="#4F8DF9"/>
<stop offset="1" stop-color="#4F8DF9" stop-opacity="0.4"/>
</linearGradient>
</defs>
</svg>
