<svg width="32" height="33" viewBox="0 0 32 33" fill="none" xmlns="http://www.w3.org/2000/svg">
<path d="M16.0002 29.4215C15.4224 29.4215 14.9002 29.2827 14.4335 29.0049C13.9668 28.7271 13.6002 28.3549 13.3335 27.8882C12.6002 27.8882 11.9724 27.6271 11.4502 27.1049C10.9279 26.5827 10.6668 25.9549 10.6668 25.2215V20.4882C9.35572 19.6215 8.30572 18.4771 7.51683 17.0549C6.72794 15.6327 6.3335 14.0882 6.3335 12.4215C6.3335 9.73266 7.27239 7.44933 9.15016 5.57155C11.0279 3.69377 13.3113 2.75488 16.0002 2.75488C18.6891 2.75488 20.9724 3.69377 22.8502 5.57155C24.7279 7.44933 25.6668 9.73266 25.6668 12.4215C25.6668 14.1327 25.2724 15.6882 24.4835 17.0882C23.6946 18.4882 22.6446 19.6215 21.3335 20.4882V25.2215C21.3335 25.9549 21.0724 26.5827 20.5502 27.1049C20.0279 27.6271 19.4002 27.8882 18.6668 27.8882C18.4002 28.3549 18.0335 28.7271 17.5668 29.0049C17.1002 29.2827 16.5779 29.4215 16.0002 29.4215ZM13.3335 25.2215H18.6668V24.0215H13.3335V25.2215ZM13.3335 22.6882H18.6668V21.4215H13.3335V22.6882ZM13.0668 18.7549H15.0002V15.1549L12.0668 12.2215L13.4668 10.8215L16.0002 13.3549L18.5335 10.8215L19.9335 12.2215L17.0002 15.1549V18.7549H18.9335C20.1335 18.1771 21.1113 17.3271 21.8668 16.2049C22.6224 15.0827 23.0002 13.8215 23.0002 12.4215C23.0002 10.466 22.3224 8.81044 20.9668 7.45488C19.6113 6.09933 17.9557 5.42155 16.0002 5.42155C14.0446 5.42155 12.3891 6.09933 11.0335 7.45488C9.67794 8.81044 9.00016 10.466 9.00016 12.4215C9.00016 13.8215 9.37794 15.0827 10.1335 16.2049C10.8891 17.3271 11.8668 18.1771 13.0668 18.7549Z" fill="url(#paint0_linear_791_4590)"/>
<defs>
<linearGradient id="paint0_linear_791_4590" x1="16.0002" y1="2.75488" x2="16.0002" y2="29.4215" gradientUnits="userSpaceOnUse">
<stop stop-color="#4F8DF9"/>
<stop offset="1" stop-color="#4F8DF9" stop-opacity="0.4"/>
</linearGradient>
</defs>
</svg>
