<svg width="32" height="33" viewBox="0 0 32 33" fill="none" xmlns="http://www.w3.org/2000/svg">
<path d="M25.2002 28.3184L17.9002 21.0184L20.7002 18.2184L28.0002 25.5184L25.2002 28.3184ZM6.80016 28.3184L4.00016 25.5184L13.2002 16.3184L10.9335 14.0517L10.0002 14.985L8.30016 13.285V16.0184L7.36683 16.9517L3.3335 12.9184L4.26683 11.985H7.00016L5.3335 10.3184L10.0668 5.58503C10.5113 5.14058 10.9891 4.81836 11.5002 4.61836C12.0113 4.41836 12.5335 4.31836 13.0668 4.31836C13.6002 4.31836 14.1224 4.41836 14.6335 4.61836C15.1446 4.81836 15.6224 5.14058 16.0668 5.58503L13.0002 8.65169L14.6668 10.3184L13.7335 11.2517L16.0002 13.5184L19.0002 10.5184C18.9113 10.2739 18.8391 10.0184 18.7835 9.75169C18.7279 9.48503 18.7002 9.21836 18.7002 8.95169C18.7002 7.64058 19.1502 6.53503 20.0502 5.63503C20.9502 4.73503 22.0557 4.28503 23.3668 4.28503C23.7002 4.28503 24.0168 4.31836 24.3168 4.38503C24.6168 4.45169 24.9224 4.55169 25.2335 4.68503L21.9335 7.98503L24.3335 10.385L27.6335 7.08503C27.7891 7.39614 27.8946 7.70169 27.9502 8.00169C28.0057 8.30169 28.0335 8.61836 28.0335 8.95169C28.0335 10.2628 27.5835 11.3684 26.6835 12.2684C25.7835 13.1684 24.6779 13.6184 23.3668 13.6184C23.1002 13.6184 22.8335 13.5961 22.5668 13.5517C22.3002 13.5072 22.0446 13.4295 21.8002 13.3184L6.80016 28.3184Z" fill="url(#paint0_linear_791_4425)"/>
<defs>
<linearGradient id="paint0_linear_791_4425" x1="15.6835" y1="4.28503" x2="15.6835" y2="28.3184" gradientUnits="userSpaceOnUse">
<stop stop-color="#4F8DF9"/>
<stop offset="1" stop-color="#4F8DF9" stop-opacity="0.4"/>
</linearGradient>
</defs>
</svg>
