<svg width="32" height="33" viewBox="0 0 32 33" fill="none" xmlns="http://www.w3.org/2000/svg">
<path d="M14.6665 23.0669H17.3332V15.0669H14.6665V23.0669ZM15.9998 12.4002C16.3776 12.4002 16.6943 12.2724 16.9498 12.0169C17.2054 11.7613 17.3332 11.4447 17.3332 11.0669C17.3332 10.6891 17.2054 10.3724 16.9498 10.1169C16.6943 9.86134 16.3776 9.73356 15.9998 9.73356C15.6221 9.73356 15.3054 9.86134 15.0498 10.1169C14.7943 10.3724 14.6665 10.6891 14.6665 11.0669C14.6665 11.4447 14.7943 11.7613 15.0498 12.0169C15.3054 12.2724 15.6221 12.4002 15.9998 12.4002ZM15.9998 29.7336C14.1554 29.7336 12.4221 29.3836 10.7998 28.6836C9.17761 27.9836 7.7665 27.0336 6.5665 25.8336C5.3665 24.6336 4.4165 23.2224 3.7165 21.6002C3.0165 19.978 2.6665 18.2447 2.6665 16.4002C2.6665 14.5558 3.0165 12.8224 3.7165 11.2002C4.4165 9.57801 5.3665 8.16689 6.5665 6.96689C7.7665 5.76689 9.17761 4.81689 10.7998 4.11689C12.4221 3.41689 14.1554 3.06689 15.9998 3.06689C17.8443 3.06689 19.5776 3.41689 21.1998 4.11689C22.8221 4.81689 24.2332 5.76689 25.4332 6.96689C26.6332 8.16689 27.5832 9.57801 28.2832 11.2002C28.9832 12.8224 29.3332 14.5558 29.3332 16.4002C29.3332 18.2447 28.9832 19.978 28.2832 21.6002C27.5832 23.2224 26.6332 24.6336 25.4332 25.8336C24.2332 27.0336 22.8221 27.9836 21.1998 28.6836C19.5776 29.3836 17.8443 29.7336 15.9998 29.7336ZM15.9998 27.0669C18.9776 27.0669 21.4998 26.0336 23.5665 23.9669C25.6332 21.9002 26.6665 19.378 26.6665 16.4002C26.6665 13.4224 25.6332 10.9002 23.5665 8.83356C21.4998 6.76689 18.9776 5.73356 15.9998 5.73356C13.0221 5.73356 10.4998 6.76689 8.43317 8.83356C6.3665 10.9002 5.33317 13.4224 5.33317 16.4002C5.33317 19.378 6.3665 21.9002 8.43317 23.9669C10.4998 26.0336 13.0221 27.0669 15.9998 27.0669Z" fill="url(#paint0_linear_791_4199)"/>
<defs>
<linearGradient id="paint0_linear_791_4199" x1="15.9998" y1="3.06689" x2="15.9998" y2="29.7336" gradientUnits="userSpaceOnUse">
<stop stop-color="#4F8DF9"/>
<stop offset="1" stop-color="#4F8DF9" stop-opacity="0.4"/>
</linearGradient>
</defs>
</svg>
