<svg width="32" height="33" viewBox="0 0 32 33" fill="none" xmlns="http://www.w3.org/2000/svg">
<path d="M15.9998 29.6869C14.1554 29.6869 12.4221 29.3369 10.7998 28.6369C9.17761 27.9369 7.7665 26.9869 6.5665 25.7869C5.3665 24.5869 4.4165 23.1758 3.7165 21.5536C3.0165 19.9314 2.6665 18.198 2.6665 16.3536C2.6665 14.5092 3.0165 12.7758 3.7165 11.1536C4.4165 9.53137 5.3665 8.12026 6.5665 6.92026C7.7665 5.72026 9.17761 4.77026 10.7998 4.07026C12.4221 3.37026 14.1554 3.02026 15.9998 3.02026C17.8443 3.02026 19.5776 3.37026 21.1998 4.07026C22.8221 4.77026 24.2332 5.72026 25.4332 6.92026C26.6332 8.12026 27.5832 9.53137 28.2832 11.1536C28.9832 12.7758 29.3332 14.5092 29.3332 16.3536C29.3332 18.198 28.9832 19.9314 28.2832 21.5536C27.5832 23.1758 26.6332 24.5869 25.4332 25.7869C24.2332 26.9869 22.8221 27.9369 21.1998 28.6369C19.5776 29.3369 17.8443 29.6869 15.9998 29.6869ZM15.9998 27.0203C18.9776 27.0203 21.4998 25.9869 23.5665 23.9203C25.6332 21.8536 26.6665 19.3314 26.6665 16.3536C26.6665 13.3758 25.6332 10.8536 23.5665 8.78693C21.4998 6.72026 18.9776 5.68693 15.9998 5.68693C13.0221 5.68693 10.4998 6.72026 8.43317 8.78693C6.3665 10.8536 5.33317 13.3758 5.33317 16.3536C5.33317 19.3314 6.3665 21.8536 8.43317 23.9203C10.4998 25.9869 13.0221 27.0203 15.9998 27.0203ZM15.9998 24.3536C13.7776 24.3536 11.8887 23.5758 10.3332 22.0203C8.77761 20.4647 7.99984 18.5758 7.99984 16.3536C7.99984 14.1314 8.77761 12.2425 10.3332 10.6869C11.8887 9.13137 13.7776 8.3536 15.9998 8.3536C18.2221 8.3536 20.1109 9.13137 21.6665 10.6869C23.2221 12.2425 23.9998 14.1314 23.9998 16.3536C23.9998 18.5758 23.2221 20.4647 21.6665 22.0203C20.1109 23.5758 18.2221 24.3536 15.9998 24.3536ZM15.9998 21.6869C17.4665 21.6869 18.7221 21.1647 19.7665 20.1203C20.8109 19.0758 21.3332 17.8203 21.3332 16.3536C21.3332 14.8869 20.8109 13.6314 19.7665 12.5869C18.7221 11.5425 17.4665 11.0203 15.9998 11.0203C14.5332 11.0203 13.2776 11.5425 12.2332 12.5869C11.1887 13.6314 10.6665 14.8869 10.6665 16.3536C10.6665 17.8203 11.1887 19.0758 12.2332 20.1203C13.2776 21.1647 14.5332 21.6869 15.9998 21.6869ZM15.9998 19.0203C15.2665 19.0203 14.6387 18.7592 14.1165 18.2369C13.5943 17.7147 13.3332 17.0869 13.3332 16.3536C13.3332 15.6203 13.5943 14.9925 14.1165 14.4703C14.6387 13.948 15.2665 13.6869 15.9998 13.6869C16.7332 13.6869 17.3609 13.948 17.8832 14.4703C18.4054 14.9925 18.6665 15.6203 18.6665 16.3536C18.6665 17.0869 18.4054 17.7147 17.8832 18.2369C17.3609 18.7592 16.7332 19.0203 15.9998 19.0203Z" fill="url(#paint0_linear_791_4316)"/>
<defs>
<linearGradient id="paint0_linear_791_4316" x1="15.9998" y1="3.02026" x2="15.9998" y2="29.6869" gradientUnits="userSpaceOnUse">
<stop stop-color="#4F8DF9"/>
<stop offset="1" stop-color="#4F8DF9" stop-opacity="0.4"/>
</linearGradient>
</defs>
</svg>
