<svg width="32" height="32" viewBox="0 0 32 32" fill="none" xmlns="http://www.w3.org/2000/svg">
<path d="M1.3335 17.333V14.6663H9.3335V17.333H1.3335ZM10.3335 12.1997L7.5335 9.39968L9.40016 7.53301L12.2002 10.333L10.3335 12.1997ZM14.6668 9.33301V1.33301H17.3335V9.33301H14.6668ZM21.6668 12.1997L19.8002 10.333L22.6002 7.53301L24.4668 9.39968L21.6668 12.1997ZM22.6668 17.333V14.6663H30.6668V17.333H22.6668ZM16.0002 19.9997C14.8891 19.9997 13.9446 19.6108 13.1668 18.833C12.3891 18.0552 12.0002 17.1108 12.0002 15.9997C12.0002 14.8886 12.3891 13.9441 13.1668 13.1663C13.9446 12.3886 14.8891 11.9997 16.0002 11.9997C17.1113 11.9997 18.0557 12.3886 18.8335 13.1663C19.6113 13.9441 20.0002 14.8886 20.0002 15.9997C20.0002 17.1108 19.6113 18.0552 18.8335 18.833C18.0557 19.6108 17.1113 19.9997 16.0002 19.9997ZM22.6002 24.4663L19.8002 21.6663L21.6668 19.7997L24.4668 22.5997L22.6002 24.4663ZM9.40016 24.4663L7.5335 22.5997L10.3335 19.7997L12.2002 21.6663L9.40016 24.4663ZM14.6668 30.6663V22.6663H17.3335V30.6663H14.6668Z" fill="url(#paint0_linear_792_4788)"/>
<defs>
<linearGradient id="paint0_linear_792_4788" x1="16.0002" y1="1.33301" x2="16.0002" y2="30.6663" gradientUnits="userSpaceOnUse">
<stop stop-color="#4F8DF9"/>
<stop offset="1" stop-color="#4F8DF9" stop-opacity="0.4"/>
</linearGradient>
</defs>
</svg>
