<svg width="1440" height="209" viewBox="0 0 1440 209" fill="none" xmlns="http://www.w3.org/2000/svg">
<path d="M30.9784 206.763H-7.20578V36.7508H-69V2.23699H92.4811V36.7508H30.9784V206.763Z" fill="white" fill-opacity="0.02"/>
<path d="M159.476 206.763H121.001V2.55656H159.476V87.5627H250.419V2.55656H288.895V206.763H250.419V120.159H159.476V206.763Z" fill="white" fill-opacity="0.02"/>
<path d="M462.714 206.763L449.305 158.827H369.731L356.031 206.763H316.972L379.35 2.23699H442.893L503.23 206.763H462.714ZM376.726 132.622H442.601L411.413 25.8853H408.206L376.726 132.622Z" fill="white" fill-opacity="0.02"/>
<path d="M706.932 2.23699V206.763H648.053L569.061 41.2248V206.763H530.586V2.23699H590.048L668.748 168.095V2.23699H706.932Z" fill="white" fill-opacity="0.02"/>
<path d="M926.072 2.23699L840.959 93.9541H877.103L920.826 206.763H880.893L841.251 108.974H826.385L790.825 147.642V206.763H752.932V2.23699H790.825V103.541L882.933 2.23699H926.072Z" fill="white" fill-opacity="0.02"/>
<path d="M1042.23 206.763H1004.34V141.89L929.717 2.55656H971.982L1024.16 99.3868L1076.62 2.55656H1118.6L1042.23 141.89V206.763Z" fill="white" fill-opacity="0.02"/>
<path d="M1122.68 104.5C1122.68 28.7615 1169.61 0 1224.7 0C1280.37 0 1326.72 28.7615 1326.72 104.5C1326.72 178.96 1280.08 209 1224.7 209C1169.61 209 1122.68 178.641 1122.68 104.5ZM1224.7 173.847C1260.84 173.847 1288.24 155.632 1288.24 104.5C1288.24 52.0902 1260.84 35.1529 1224.7 35.1529C1188.55 35.1529 1161.16 51.7706 1161.16 104.5C1161.16 155.632 1188.55 173.847 1224.7 173.847Z" fill="white" fill-opacity="0.02"/>
<path d="M1354.02 2.23699H1392.5V127.829C1392.5 161.703 1407.95 173.847 1436.51 173.847C1466.82 173.847 1481.4 161.384 1481.4 127.829V2.23699H1519V128.787C1519 176.404 1494.52 209 1436.22 209C1379.96 209 1354.02 176.404 1354.02 128.787V2.23699Z" fill="white" fill-opacity="0.02"/>
</svg>
