<svg width="1360" height="699" viewBox="0 0 1360 699" fill="none" xmlns="http://www.w3.org/2000/svg">
<path d="M544.585 -142.702C686.978 -138.209 823.971 -98.5425 945.717 -26.6073C1110.53 70.7889 1237.99 222.012 1305.56 400.33C1338.5 487.197 1356.33 577.104 1359.56 672.05C1360.19 691.111 1360.15 698.282 1359.42 698.282C1358.97 698.282 1358.69 694.061 1358.28 677.814C1357.51 649.72 1355.88 625.802 1352.98 600.886C1333.28 430.511 1261.63 270.528 1147.24 141.408C1125.91 117.354 1099.45 90.8945 1075.5 69.6544C962.235 -30.6465 825.741 -98.0433 677.993 -126.545C642.554 -133.353 605.798 -137.982 568.861 -140.161C558.47 -140.796 530.291 -141.794 522.441 -141.794H519.627V278.244C519.627 651.309 519.537 698.282 518.947 698.282C518.357 698.282 518.266 687.344 518.221 602.838C518.175 522.052 518.039 508.482 517.586 514.246C514.454 550.962 502.702 583.776 482.282 612.777C475.113 622.988 470.484 628.525 461.59 637.602C430.779 669.054 391.256 689.024 347.649 695.105C341.977 695.922 329.498 696.921 325.278 696.921C322.056 696.921 321.33 697.057 321.33 697.601C321.33 697.965 320.922 698.282 320.422 698.282C319.923 698.282 319.515 698.01 319.515 697.692C319.515 697.193 317.655 697.011 310.757 696.739C288.114 695.922 268.194 693.29 247.819 688.524C189.465 674.864 136.737 645.545 94.2637 603.155C44.1222 553.05 12.2675 488.921 2.78369 418.937C-0.483398 394.793 -0.891846 363.976 1.64929 333.16C8.72815 247.7 36.0905 167.278 82.7833 94.6615C97.1678 72.332 113.277 51.228 132.743 29.3071C139.731 21.4554 164.553 -3.37018 172.494 -10.4502C210.746 -44.3982 249.861 -70.5854 294.512 -92.0525C350.235 -118.83 408.363 -134.941 471.074 -140.887C490.223 -142.702 520.444 -143.474 544.585 -142.702ZM489.452 -140.841C363.984 -133.807 246.231 -81.614 156.203 6.84149C120.401 42.0149 90.3159 81.5906 65.8577 125.523C60.594 135.009 49.7489 156.748 45.7103 165.916C19.6185 225.143 5.14331 286.05 1.87622 350.588C1.64929 355.671 1.42236 363.613 1.42236 368.152V376.502H259.844H518.266V117.309V-141.931L507.92 -141.613C502.248 -141.431 493.944 -141.114 489.452 -140.841ZM402.827 378.318C425.289 379.634 445.572 386.351 463.814 398.514C471.482 403.643 476.202 407.5 482.418 413.718C491.675 422.931 498.527 432.326 504.472 443.899C512.367 459.149 515.816 471.448 517.948 491.327C518.039 492.189 518.175 467.046 518.175 435.367L518.266 377.864L457.552 377.955C424.2 377.955 399.56 378.136 402.827 378.318ZM321.375 410.405V442.992L322.283 438.816C329.271 405.549 357.133 381.268 391.664 378.318C393.797 378.136 378.823 377.955 358.403 377.909L321.33 377.864L321.375 410.405ZM1.42236 384.082C1.42236 391.389 2.78369 408.635 4.14502 418.711C12.449 480.434 38.2231 537.483 79.38 585.274C86.6404 593.67 103.203 610.19 111.688 617.542C159.652 658.888 216.781 684.576 279.13 692.836C288.16 694.016 299.731 694.969 310.757 695.378L319.515 695.695V536.757V377.864H160.469H1.42236V384.082ZM396.656 439.588V499.496L456.644 499.405L516.678 499.269L516.542 494.73C515.181 452.386 490.223 412.901 452.243 393.25C435.771 384.717 417.802 379.952 401.057 379.725L396.656 379.679V439.588ZM386.038 380.406C361.307 384.218 341.024 399.013 329.725 421.479C325.595 429.648 322.283 442.22 322.238 449.663V452.295H358.766H395.295V415.987V379.679H392.98C391.664 379.679 388.579 379.997 386.038 380.406ZM382.589 454.202C386.491 455.926 387.989 456.834 389.895 458.695C392.164 460.873 394.115 464.322 394.795 467.136C395.113 468.362 395.204 466.728 395.249 461.236L395.295 453.657L388.352 453.702C382.952 453.702 381.681 453.839 382.589 454.202ZM368.068 456.652V459.648L369.566 457.651C370.383 456.607 371.88 455.245 372.833 454.701L374.648 453.657H371.336H368.068V456.652ZM322.374 457.832C323.554 475.442 336.804 491.463 354.228 496.546C357.904 497.59 365.618 498.679 366.344 498.27C366.798 498.044 366.843 454.383 366.389 453.975C366.253 453.793 356.18 453.657 344.109 453.657H322.101L322.374 457.832ZM378.959 462.734V470.449H386.446H393.979L393.661 468.725C393.298 466.41 391.12 461.872 389.668 460.374C386.9 457.515 382.544 455.109 379.957 455.019C378.959 455.019 378.959 455.019 378.959 462.734ZM372.606 456.562C370.836 457.696 368.976 460.873 368.976 462.643C368.976 463.596 369.157 463.642 373.287 463.642H377.598V459.285V454.882L375.964 455.155C375.056 455.336 373.514 455.926 372.606 456.562ZM321.33 481.115V499.496L340.252 499.45C359.129 499.405 359.22 499.405 356.27 498.634C342.748 495.003 332.584 487.151 326.14 475.396C324.416 472.219 322.51 467.272 322.011 464.413C321.829 463.506 321.602 462.734 321.512 462.734C321.421 462.734 321.33 470.994 321.33 481.115ZM376.236 465.185C376.236 465.276 376.554 465.457 376.917 465.639C377.28 465.775 377.598 465.684 377.598 465.457C377.598 465.185 377.28 465.003 376.917 465.003C376.554 465.003 376.236 465.094 376.236 465.185ZM369.43 465.639C369.43 466.319 372.334 469.088 373.06 469.088C373.332 469.088 373.514 468.18 373.514 467.046V465.003H371.472C370.02 465.003 369.43 465.185 369.43 465.639ZM368.068 468.634V470.449H370.201H372.379L370.746 469.315C369.838 468.725 368.976 467.908 368.84 467.499C368.341 466.319 368.068 466.728 368.068 468.634ZM374.875 468.452C374.875 468.861 375.102 469.088 375.419 468.997C376.236 468.725 376.372 467.726 375.601 467.726C375.193 467.726 374.875 468.044 374.875 468.452ZM376.69 469.769C376.236 470.313 376.236 470.449 376.872 470.449C377.28 470.449 377.598 470.132 377.598 469.769C377.598 469.406 377.507 469.088 377.416 469.088C377.325 469.088 377.008 469.406 376.69 469.769ZM368.068 485.109V498.452L370.564 498.089C378.959 496.954 387.172 491.1 390.893 483.566C392.481 480.343 393.888 475.26 393.933 472.809V471.811H381.001H368.068V485.109ZM392.073 484.337C389.305 489.92 383.27 495.366 377.28 497.635C375.828 498.225 374.24 498.86 373.74 499.042C373.196 499.269 377.552 499.45 384.041 499.45L395.295 499.496L395.249 487.106V474.761L394.387 478.074C393.888 479.935 392.844 482.703 392.073 484.337ZM321.33 598.208V695.559H325.051C332.629 695.559 346.333 694.107 356.951 692.201C380.366 688.025 405.958 677.859 426.65 664.425C469.667 636.604 499.934 593.715 511.641 543.973C514.046 533.671 515.816 521.281 516.224 511.75C516.36 508.391 516.587 504.534 516.678 503.217L516.905 500.857H419.117H321.33V598.208Z" fill="white" fill-opacity="0.12"/>
</svg>
