<svg width="160" height="160" viewBox="0 0 160 160" fill="none" xmlns="http://www.w3.org/2000/svg">
<path d="M72.412 59.0661C74.6683 57.3531 77.3525 56.4967 80.4646 56.4967C82.4097 56.4967 84.1214 56.886 85.5997 57.6646C87.0779 58.3653 88.2839 59.3386 89.2175 60.5844C90.229 61.7523 90.9681 63.1538 91.4349 64.7889C91.9796 66.4239 92.2519 68.1369 92.2519 69.9277C92.2519 72.5749 91.9017 75.3779 91.2015 78.3366C90.5013 81.2954 89.412 84.0205 87.9338 86.512C86.4555 89.0036 84.5882 91.0669 82.3319 92.702C80.0756 94.3371 77.3525 95.1546 74.1626 95.1546C70.1168 95.1546 67.1214 93.9867 65.1763 91.6509C63.2312 89.2372 62.2586 86.0449 62.2586 82.074C62.2586 79.5046 62.6088 76.7405 63.309 73.7818C64.087 70.7452 65.2152 67.9422 66.6934 65.3728C68.2495 62.8034 70.1557 60.7012 72.412 59.0661Z" fill="white"/>
<path fill-rule="evenodd" clip-rule="evenodd" d="M80 160C124.183 160 160 124.183 160 80C160 35.8172 124.183 0 80 0C35.8172 0 0 35.8172 0 80C0 124.183 35.8172 160 80 160ZM69.261 45.6351H53.2724L36 127.155H52.4554L58.7575 97.9576H59.1076C59.73 99.5927 60.6248 101.033 61.7918 102.279C63.0367 103.447 64.3982 104.42 65.8765 105.199C67.4326 105.977 69.0664 106.561 70.7781 106.951C72.5676 107.34 74.3182 107.534 76.0299 107.534C81.6317 107.534 86.4555 106.405 90.5013 104.148C94.6249 101.89 98.0482 98.8919 100.771 95.1546C103.494 91.4173 105.517 87.1739 106.84 82.4243C108.163 77.6748 108.824 72.8085 108.824 67.8254C108.824 60.5065 106.84 54.7059 102.872 50.4235C98.9041 46.1412 93.2633 44 85.9498 44C82.2152 44 78.7141 44.7397 75.4463 46.219C72.2564 47.6984 69.7278 50.0731 67.8605 53.3433L67.6271 53.1097L69.261 45.6351ZM134.888 88.0303H116.448L112.714 106.016H131.036L134.888 88.0303Z" fill="white"/>
</svg>
