<svg width="40" height="41" viewBox="0 0 40 41" fill="none" xmlns="http://www.w3.org/2000/svg">
<path d="M3.33398 33.3551V28.3551H6.66732V10.0218C6.66732 9.10514 6.99371 8.32042 7.64648 7.66764C8.29926 7.01487 9.08399 6.68848 10.0007 6.68848H35.0007V10.0218H10.0007V28.3551H20.0007V33.3551H3.33398ZM25.0007 33.3551C24.5284 33.3551 24.1326 33.1954 23.8132 32.876C23.4937 32.5565 23.334 32.1607 23.334 31.6885V15.0218C23.334 14.5496 23.4937 14.1538 23.8132 13.8343C24.1326 13.5149 24.5284 13.3551 25.0007 13.3551H35.0007C35.4729 13.3551 35.8687 13.5149 36.1882 13.8343C36.5076 14.1538 36.6673 14.5496 36.6673 15.0218V31.6885C36.6673 32.1607 36.5076 32.5565 36.1882 32.876C35.8687 33.1954 35.4729 33.3551 35.0007 33.3551H25.0007Z" fill="url(#paint0_linear_652_4742)"/>
<defs>
<linearGradient id="paint0_linear_652_4742" x1="20.0007" y1="6.68848" x2="20.0007" y2="33.3551" gradientUnits="userSpaceOnUse">
<stop stop-color="#9D9D9D"/>
<stop offset="1" stop-color="#9D9D9D" stop-opacity="0.8"/>
</linearGradient>
</defs>
</svg>
