<svg width="40" height="41" viewBox="0 0 40 41" fill="none" xmlns="http://www.w3.org/2000/svg">
<path d="M9.75065 28.5212C11.1673 27.4378 12.7507 26.5837 14.5007 25.9587C16.2507 25.3337 18.084 25.0212 20.0007 25.0212C21.9173 25.0212 23.7506 25.3337 25.5006 25.9587C27.2506 26.5837 28.834 27.4378 30.2506 28.5212C31.2229 27.3823 31.9798 26.0906 32.5215 24.6462C33.0631 23.2017 33.334 21.66 33.334 20.0212C33.334 16.3267 32.0354 13.1809 29.4381 10.5837C26.8409 7.98644 23.6951 6.68783 20.0007 6.68783C16.3062 6.68783 13.1604 7.98644 10.5632 10.5837C7.96593 13.1809 6.66732 16.3267 6.66732 20.0212C6.66732 21.66 6.93815 23.2017 7.47982 24.6462C8.02148 26.0906 8.77843 27.3823 9.75065 28.5212ZM20.0007 21.6878C18.3618 21.6878 16.9798 21.1253 15.8548 20.0003C14.7298 18.8753 14.1673 17.4934 14.1673 15.8545C14.1673 14.2156 14.7298 12.8337 15.8548 11.7087C16.9798 10.5837 18.3618 10.0212 20.0007 10.0212C21.6395 10.0212 23.0215 10.5837 24.1465 11.7087C25.2715 12.8337 25.834 14.2156 25.834 15.8545C25.834 17.4934 25.2715 18.8753 24.1465 20.0003C23.0215 21.1253 21.6395 21.6878 20.0007 21.6878ZM20.0007 36.6878C17.6951 36.6878 15.5284 36.2503 13.5007 35.3753C11.4729 34.5003 9.70898 33.3128 8.20898 31.8128C6.70898 30.3128 5.52148 28.5489 4.64648 26.5212C3.77148 24.4934 3.33398 22.3267 3.33398 20.0212C3.33398 17.7156 3.77148 15.5489 4.64648 13.5212C5.52148 11.4934 6.70898 9.72949 8.20898 8.22949C9.70898 6.72949 11.4729 5.54199 13.5007 4.66699C15.5284 3.79199 17.6951 3.35449 20.0007 3.35449C22.3062 3.35449 24.4729 3.79199 26.5006 4.66699C28.5284 5.54199 30.2923 6.72949 31.7923 8.22949C33.2923 9.72949 34.4798 11.4934 35.3548 13.5212C36.2298 15.5489 36.6673 17.7156 36.6673 20.0212C36.6673 22.3267 36.2298 24.4934 35.3548 26.5212C34.4798 28.5489 33.2923 30.3128 31.7923 31.8128C30.2923 33.3128 28.5284 34.5003 26.5006 35.3753C24.4729 36.2503 22.3062 36.6878 20.0007 36.6878Z" fill="url(#paint0_linear_652_4733)"/>
<defs>
<linearGradient id="paint0_linear_652_4733" x1="20.0007" y1="3.35449" x2="20.0007" y2="36.6878" gradientUnits="userSpaceOnUse">
<stop stop-color="#9D9D9D"/>
<stop offset="1" stop-color="#9D9D9D" stop-opacity="0.8"/>
</linearGradient>
</defs>
</svg>
