<svg width="40" height="41" viewBox="0 0 40 41" fill="none" xmlns="http://www.w3.org/2000/svg">
<path d="M20.0007 36.6878C17.7229 36.6878 15.5701 36.2503 13.5423 35.3753C11.5145 34.5003 9.74371 33.3059 8.22982 31.792C6.71593 30.2781 5.52148 28.5073 4.64648 26.4795C3.77148 24.4517 3.33398 22.2989 3.33398 20.0212C3.33398 17.7156 3.78537 15.5489 4.68815 13.5212C5.59093 11.4934 6.81315 9.72949 8.35482 8.22949C9.89648 6.72949 11.6951 5.54199 13.7507 4.66699C15.8062 3.79199 18.0007 3.35449 20.334 3.35449C22.5562 3.35449 24.6534 3.73644 26.6256 4.50033C28.5979 5.26421 30.327 6.31977 31.8131 7.66699C33.2993 9.01421 34.4798 10.6114 35.3548 12.4587C36.2298 14.3059 36.6673 16.2989 36.6673 18.4378C36.6673 21.6323 35.6951 24.0837 33.7506 25.792C31.8062 27.5003 29.4451 28.3545 26.6673 28.3545H23.584C23.334 28.3545 23.1604 28.4239 23.0631 28.5628C22.9659 28.7017 22.9173 28.8545 22.9173 29.0212C22.9173 29.3545 23.1256 29.8337 23.5423 30.4587C23.959 31.0837 24.1673 31.7989 24.1673 32.6045C24.1673 33.9934 23.7854 35.0212 23.0215 35.6878C22.2576 36.3545 21.2506 36.6878 20.0007 36.6878ZM10.834 21.6878C11.5562 21.6878 12.1534 21.4517 12.6257 20.9795C13.0979 20.5073 13.334 19.91 13.334 19.1878C13.334 18.4656 13.0979 17.8684 12.6257 17.3962C12.1534 16.9239 11.5562 16.6878 10.834 16.6878C10.1118 16.6878 9.51454 16.9239 9.04232 17.3962C8.5701 17.8684 8.33398 18.4656 8.33398 19.1878C8.33398 19.91 8.5701 20.5073 9.04232 20.9795C9.51454 21.4517 10.1118 21.6878 10.834 21.6878ZM15.834 15.0212C16.5562 15.0212 17.1534 14.785 17.6257 14.3128C18.0979 13.8406 18.334 13.2434 18.334 12.5212C18.334 11.7989 18.0979 11.2017 17.6257 10.7295C17.1534 10.2573 16.5562 10.0212 15.834 10.0212C15.1118 10.0212 14.5145 10.2573 14.0423 10.7295C13.5701 11.2017 13.334 11.7989 13.334 12.5212C13.334 13.2434 13.5701 13.8406 14.0423 14.3128C14.5145 14.785 15.1118 15.0212 15.834 15.0212ZM24.1673 15.0212C24.8895 15.0212 25.4868 14.785 25.959 14.3128C26.4312 13.8406 26.6673 13.2434 26.6673 12.5212C26.6673 11.7989 26.4312 11.2017 25.959 10.7295C25.4868 10.2573 24.8895 10.0212 24.1673 10.0212C23.4451 10.0212 22.8479 10.2573 22.3756 10.7295C21.9034 11.2017 21.6673 11.7989 21.6673 12.5212C21.6673 13.2434 21.9034 13.8406 22.3756 14.3128C22.8479 14.785 23.4451 15.0212 24.1673 15.0212ZM29.1673 21.6878C29.8895 21.6878 30.4868 21.4517 30.959 20.9795C31.4312 20.5073 31.6673 19.91 31.6673 19.1878C31.6673 18.4656 31.4312 17.8684 30.959 17.3962C30.4868 16.9239 29.8895 16.6878 29.1673 16.6878C28.4451 16.6878 27.8479 16.9239 27.3756 17.3962C26.9034 17.8684 26.6673 18.4656 26.6673 19.1878C26.6673 19.91 26.9034 20.5073 27.3756 20.9795C27.8479 21.4517 28.4451 21.6878 29.1673 21.6878Z" fill="url(#paint0_linear_652_4758)"/>
<defs>
<linearGradient id="paint0_linear_652_4758" x1="20.0007" y1="3.35449" x2="20.0007" y2="36.6878" gradientUnits="userSpaceOnUse">
<stop stop-color="#9D9D9D"/>
<stop offset="1" stop-color="#9D9D9D" stop-opacity="0.8"/>
</linearGradient>
</defs>
</svg>
