<svg width="40" height="41" viewBox="0 0 40 41" fill="none" xmlns="http://www.w3.org/2000/svg">
<path d="M15 5.02181V1.68848H25V5.02181H15ZM18.3333 23.3551H21.6667V13.3551H18.3333V23.3551ZM20 36.6885C17.9444 36.6885 16.0069 36.2926 14.1875 35.501C12.3681 34.7093 10.7778 33.6329 9.41667 32.2718C8.05556 30.9107 6.97917 29.3204 6.1875 27.501C5.39583 25.6815 5 23.744 5 21.6885C5 19.6329 5.39583 17.6954 6.1875 15.876C6.97917 14.0565 8.05556 12.4663 9.41667 11.1051C10.7778 9.74403 12.3681 8.66764 14.1875 7.87598C16.0069 7.08431 17.9444 6.68848 20 6.68848C21.7222 6.68848 23.375 6.96625 24.9583 7.52181C26.5417 8.07737 28.0278 8.88292 29.4167 9.93848L31.75 7.60514L34.0833 9.93848L31.75 12.2718C32.8056 13.6607 33.6111 15.1468 34.1667 16.7301C34.7222 18.3135 35 19.9663 35 21.6885C35 23.744 34.6042 25.6815 33.8125 27.501C33.0208 29.3204 31.9444 30.9107 30.5833 32.2718C29.2222 33.6329 27.6319 34.7093 25.8125 35.501C23.9931 36.2926 22.0556 36.6885 20 36.6885Z" fill="url(#paint0_linear_652_4717)"/>
<defs>
<linearGradient id="paint0_linear_652_4717" x1="20" y1="1.68848" x2="20" y2="36.6885" gradientUnits="userSpaceOnUse">
<stop stop-color="#9D9D9D"/>
<stop offset="1" stop-color="#9D9D9D" stop-opacity="0.8"/>
</linearGradient>
</defs>
</svg>
