<svg width="40" height="41" viewBox="0 0 40 41" fill="none" xmlns="http://www.w3.org/2000/svg">
<path d="M14.3327 37.5215L11.166 32.1882L5.16602 30.8548L5.74935 24.6882L1.66602 20.0215L5.74935 15.3548L5.16602 9.18815L11.166 7.85482L14.3327 2.52148L19.9993 4.93815L25.666 2.52148L28.8327 7.85482L34.8327 9.18815L34.2493 15.3548L38.3327 20.0215L34.2493 24.6882L34.8327 30.8548L28.8327 32.1882L25.666 37.5215L19.9993 35.1048L14.3327 37.5215ZM18.2493 25.9382L27.666 16.5215L25.3327 14.1048L18.2493 21.1882L14.666 17.6882L12.3327 20.0215L18.2493 25.9382Z" fill="url(#paint0_linear_652_4750)"/>
<defs>
<linearGradient id="paint0_linear_652_4750" x1="19.9993" y1="2.52148" x2="19.9993" y2="37.5215" gradientUnits="userSpaceOnUse">
<stop stop-color="#9D9D9D"/>
<stop offset="1" stop-color="#9D9D9D" stop-opacity="0.8"/>
</linearGradient>
</defs>
</svg>
