<svg width="24" height="25" viewBox="0 0 24 25" fill="none" xmlns="http://www.w3.org/2000/svg">
<path d="M20 7.32813V5.32813H18V3.32813H20V1.32812H22V3.32813H24V5.32813H22V7.32813H20ZM15.5 11.3281C15.9167 11.3281 16.2708 11.1823 16.5625 10.8906C16.8542 10.599 17 10.2448 17 9.82813C17 9.41146 16.8542 9.05729 16.5625 8.76563C16.2708 8.47396 15.9167 8.32813 15.5 8.32813C15.0833 8.32813 14.7292 8.47396 14.4375 8.76563C14.1458 9.05729 14 9.41146 14 9.82813C14 10.2448 14.1458 10.599 14.4375 10.8906C14.7292 11.1823 15.0833 11.3281 15.5 11.3281ZM8.5 11.3281C8.91667 11.3281 9.27083 11.1823 9.5625 10.8906C9.85417 10.599 10 10.2448 10 9.82813C10 9.41146 9.85417 9.05729 9.5625 8.76563C9.27083 8.47396 8.91667 8.32813 8.5 8.32813C8.08333 8.32813 7.72917 8.47396 7.4375 8.76563C7.14583 9.05729 7 9.41146 7 9.82813C7 10.2448 7.14583 10.599 7.4375 10.8906C7.72917 11.1823 8.08333 11.3281 8.5 11.3281ZM12 17.8281C13.1333 17.8281 14.1625 17.5073 15.0875 16.8656C16.0125 16.224 16.6833 15.3781 17.1 14.3281H6.9C7.31667 15.3781 7.9875 16.224 8.9125 16.8656C9.8375 17.5073 10.8667 17.8281 12 17.8281ZM12 22.3281C10.6167 22.3281 9.31667 22.0656 8.1 21.5406C6.88333 21.0156 5.825 20.3031 4.925 19.4031C4.025 18.5031 3.3125 17.4448 2.7875 16.2281C2.2625 15.0115 2 13.7115 2 12.3281C2 10.9448 2.2625 9.64479 2.7875 8.42813C3.3125 7.21146 4.025 6.15313 4.925 5.25313C5.825 4.35313 6.88333 3.64063 8.1 3.11563C9.31667 2.59063 10.6167 2.32813 12 2.32813C12.7167 2.32813 13.4083 2.39896 14.075 2.54063C14.7417 2.68229 15.3833 2.88646 16 3.15313V7.32813H18V9.32813H21.55C21.7 9.81146 21.8125 10.299 21.8875 10.7906C21.9625 11.2823 22 11.7948 22 12.3281C22 13.7115 21.7375 15.0115 21.2125 16.2281C20.6875 17.4448 19.975 18.5031 19.075 19.4031C18.175 20.3031 17.1167 21.0156 15.9 21.5406C14.6833 22.0656 13.3833 22.3281 12 22.3281Z" fill="url(#paint0_linear_652_4892)"/>
<defs>
<linearGradient id="paint0_linear_652_4892" x1="13" y1="1.32812" x2="13" y2="22.3281" gradientUnits="userSpaceOnUse">
<stop stop-color="#9D9D9D"/>
<stop offset="1" stop-color="#9D9D9D" stop-opacity="0.8"/>
</linearGradient>
</defs>
</svg>
