<svg width="24" height="25" viewBox="0 0 24 25" fill="none" xmlns="http://www.w3.org/2000/svg">
<path d="M5 21.3281C4.45 21.3281 3.97917 21.1323 3.5875 20.7406C3.19583 20.349 3 19.8781 3 19.3281V5.32813C3 4.77813 3.19583 4.30729 3.5875 3.91563C3.97917 3.52396 4.45 3.32812 5 3.32812H11V21.3281H5ZM13 21.3281V12.3281H21V19.3281C21 19.8781 20.8042 20.349 20.4125 20.7406C20.0208 21.1323 19.55 21.3281 19 21.3281H13ZM13 10.3281V3.32812H19C19.55 3.32812 20.0208 3.52396 20.4125 3.91563C20.8042 4.30729 21 4.77813 21 5.32813V10.3281H13Z" fill="url(#paint0_linear_652_4886)"/>
<defs>
<linearGradient id="paint0_linear_652_4886" x1="12" y1="3.32812" x2="12" y2="21.3281" gradientUnits="userSpaceOnUse">
<stop stop-color="#9D9D9D"/>
<stop offset="1" stop-color="#9D9D9D" stop-opacity="0.8"/>
</linearGradient>
</defs>
</svg>
