<svg width="24" height="25" viewBox="0 0 24 25" fill="none" xmlns="http://www.w3.org/2000/svg">
<path d="M20.4992 23.6277L16.9492 20.0777L15.7492 21.3277H8.24922L2.99922 16.0277V8.57773L4.19922 7.37773L0.699219 3.82773L2.09922 2.42773L21.8992 22.2277L20.4992 23.6277ZM19.7992 17.2777L12.9992 10.5277V7.32773H10.9992V8.52773L7.04922 4.52773L8.24922 3.32773H15.7492L20.9992 8.57773V16.0277L19.7992 17.2777ZM11.9992 17.3277C12.2826 17.3277 12.5201 17.2319 12.7117 17.0402C12.9034 16.8486 12.9992 16.6111 12.9992 16.3277V16.1777L12.1492 15.3277H11.9992C11.7159 15.3277 11.4784 15.4236 11.2867 15.6152C11.0951 15.8069 10.9992 16.0444 10.9992 16.3277C10.9992 16.6111 11.0951 16.8486 11.2867 17.0402C11.4784 17.2319 11.7159 17.3277 11.9992 17.3277Z" fill="url(#paint0_linear_652_4880)"/>
<defs>
<linearGradient id="paint0_linear_652_4880" x1="11.2992" y1="2.42773" x2="11.2992" y2="23.6277" gradientUnits="userSpaceOnUse">
<stop stop-color="#9D9D9D"/>
<stop offset="1" stop-color="#9D9D9D" stop-opacity="0.8"/>
</linearGradient>
</defs>
</svg>
