<svg width="41" height="41" viewBox="0 0 41 41" fill="none" xmlns="http://www.w3.org/2000/svg">
<path d="M4.08398 34.2038V29.2038H7.41732V10.8704C7.41732 9.95378 7.74371 9.16905 8.39648 8.51628C9.04926 7.8635 9.83399 7.53711 10.7507 7.53711H35.7507V10.8704H10.7507V29.2038H20.7507V34.2038H4.08398ZM25.7507 34.2038C25.2784 34.2038 24.8826 34.0441 24.5632 33.7246C24.2437 33.4052 24.084 33.0093 24.084 32.5371V15.8704C24.084 15.3982 24.2437 15.0024 24.5632 14.6829C24.8826 14.3635 25.2784 14.2038 25.7507 14.2038H35.7507C36.2229 14.2038 36.6187 14.3635 36.9382 14.6829C37.2576 15.0024 37.4173 15.3982 37.4173 15.8704V32.5371C37.4173 33.0093 37.2576 33.4052 36.9382 33.7246C36.6187 34.0441 36.2229 34.2038 35.7507 34.2038H25.7507Z" fill="url(#paint0_linear_639_2105)"/>
<defs>
<linearGradient id="paint0_linear_639_2105" x1="20.7507" y1="7.53711" x2="20.7507" y2="34.2038" gradientUnits="userSpaceOnUse">
<stop stop-color="#9D9D9D"/>
<stop offset="1" stop-color="#9D9D9D" stop-opacity="0.8"/>
</linearGradient>
</defs>
</svg>
