<svg width="24" height="25" viewBox="0 0 24 25" fill="none" xmlns="http://www.w3.org/2000/svg">
<path d="M4 19.1037V17.1037H6V10.1037C6 8.72038 6.41667 7.49121 7.25 6.41621C8.08333 5.34121 9.16667 4.63704 10.5 4.30371V3.60371C10.5 3.18704 10.6458 2.83288 10.9375 2.54121C11.2292 2.24954 11.5833 2.10371 12 2.10371C12.4167 2.10371 12.7708 2.24954 13.0625 2.54121C13.3542 2.83288 13.5 3.18704 13.5 3.60371V4.30371C14.8333 4.63704 15.9167 5.34121 16.75 6.41621C17.5833 7.49121 18 8.72038 18 10.1037V17.1037H20V19.1037H4ZM12 22.1037C11.45 22.1037 10.9792 21.9079 10.5875 21.5162C10.1958 21.1245 10 20.6537 10 20.1037H14C14 20.6537 13.8042 21.1245 13.4125 21.5162C13.0208 21.9079 12.55 22.1037 12 22.1037ZM2 10.1037C2 8.43704 2.37083 6.90788 3.1125 5.51621C3.85417 4.12454 4.85 2.97038 6.1 2.05371L7.275 3.65371C6.275 4.38704 5.47917 5.31204 4.8875 6.42871C4.29583 7.54538 4 8.77038 4 10.1037H2ZM20 10.1037C20 8.77038 19.7042 7.54538 19.1125 6.42871C18.5208 5.31204 17.725 4.38704 16.725 3.65371L17.9 2.05371C19.15 2.97038 20.1458 4.12454 20.8875 5.51621C21.6292 6.90788 22 8.43704 22 10.1037H20Z" fill="url(#paint0_linear_652_4841)"/>
<defs>
<linearGradient id="paint0_linear_652_4841" x1="12" y1="2.05371" x2="12" y2="22.1037" gradientUnits="userSpaceOnUse">
<stop stop-color="#9D9D9D"/>
<stop offset="1" stop-color="#9D9D9D" stop-opacity="0.8"/>
</linearGradient>
</defs>
</svg>
