<svg width="24" height="25" viewBox="0 0 24 25" fill="none" xmlns="http://www.w3.org/2000/svg">
<path d="M12.275 15.8531C13.4417 15.8531 14.4333 15.4781 15.25 14.7281C16.0667 13.9781 16.475 13.0698 16.475 12.0031C16.475 11.0531 16.1708 10.249 15.5625 9.59063C14.9542 8.93229 14.2167 8.60313 13.35 8.60313C12.5667 8.60313 11.9042 8.85313 11.3625 9.35313C10.8208 9.85313 10.55 10.4698 10.55 11.2031C10.55 11.5198 10.6125 11.8281 10.7375 12.1281C10.8625 12.4281 11.0417 12.7031 11.275 12.9531L12.7 11.5281C12.65 11.4948 12.6125 11.4531 12.5875 11.4031C12.5625 11.3531 12.55 11.2948 12.55 11.2281C12.55 11.0448 12.625 10.899 12.775 10.7906C12.925 10.6823 13.1167 10.6281 13.35 10.6281C13.6833 10.6281 13.9583 10.7656 14.175 11.0406C14.3917 11.3156 14.5 11.6448 14.5 12.0281C14.5 12.5448 14.2875 12.9823 13.8625 13.3406C13.4375 13.699 12.9167 13.8781 12.3 13.8781C11.5167 13.8781 10.8542 13.5615 10.3125 12.9281C9.77083 12.2948 9.5 11.5198 9.5 10.6031C9.5 10.1198 9.59167 9.65729 9.775 9.21563C9.95833 8.77396 10.2167 8.38646 10.55 8.05313L9.125 6.62813C8.59167 7.14479 8.18333 7.74479 7.9 8.42813C7.61667 9.11146 7.475 9.82813 7.475 10.5781C7.475 12.0448 7.94167 13.2906 8.875 14.3156C9.80833 15.3406 10.9417 15.8531 12.275 15.8531ZM6 22.3281V18.0281C5.05 17.1615 4.3125 16.149 3.7875 14.9906C3.2625 13.8323 3 12.6115 3 11.3281C3 8.82813 3.875 6.70313 5.625 4.95313C7.375 3.20313 9.5 2.32812 12 2.32812C14.0833 2.32812 15.9292 2.94063 17.5375 4.16563C19.1458 5.39063 20.1917 6.98646 20.675 8.95313L21.975 14.0781C22.0583 14.3948 22 14.6823 21.8 14.9406C21.6 15.199 21.3333 15.3281 21 15.3281H19V18.3281C19 18.8781 18.8042 19.349 18.4125 19.7406C18.0208 20.1323 17.55 20.3281 17 20.3281H15V22.3281H6Z" fill="url(#paint0_linear_652_4874)"/>
<defs>
<linearGradient id="paint0_linear_652_4874" x1="12.5059" y1="2.32812" x2="12.5059" y2="22.3281" gradientUnits="userSpaceOnUse">
<stop stop-color="#9D9D9D"/>
<stop offset="1" stop-color="#9D9D9D" stop-opacity="0.8"/>
</linearGradient>
</defs>
</svg>
