<svg width="24" height="25" viewBox="0 0 24 25" fill="none" xmlns="http://www.w3.org/2000/svg">
<path d="M11.7 18.1035C10.1 18.0202 8.75 17.4035 7.65 16.2535C6.55 15.1035 6 13.7202 6 12.1035C6 10.4368 6.58333 9.02018 7.75 7.85352C8.91667 6.68685 10.3333 6.10352 12 6.10352C13.6167 6.10352 15 6.65352 16.15 7.75352C17.3 8.85352 17.9167 10.2035 18 11.8035L15.9 11.1785C15.6833 10.2785 15.2167 9.54102 14.5 8.96602C13.7833 8.39102 12.95 8.10352 12 8.10352C10.9 8.10352 9.95833 8.49518 9.175 9.27852C8.39167 10.0618 8 11.0035 8 12.1035C8 13.0535 8.2875 13.8868 8.8625 14.6035C9.4375 15.3202 10.175 15.7868 11.075 16.0035L11.7 18.1035ZM12.9 22.0535C12.75 22.0868 12.6 22.1035 12.45 22.1035H12C10.6167 22.1035 9.31667 21.841 8.1 21.316C6.88333 20.791 5.825 20.0785 4.925 19.1785C4.025 18.2785 3.3125 17.2202 2.7875 16.0035C2.2625 14.7868 2 13.4868 2 12.1035C2 10.7202 2.2625 9.42018 2.7875 8.20352C3.3125 6.98685 4.025 5.92852 4.925 5.02852C5.825 4.12852 6.88333 3.41602 8.1 2.89102C9.31667 2.36602 10.6167 2.10352 12 2.10352C13.3833 2.10352 14.6833 2.36602 15.9 2.89102C17.1167 3.41602 18.175 4.12852 19.075 5.02852C19.975 5.92852 20.6875 6.98685 21.2125 8.20352C21.7375 9.42018 22 10.7202 22 12.1035V12.5535C22 12.7035 21.9833 12.8535 21.95 13.0035L20 12.4035V12.1035C20 9.87018 19.225 7.97852 17.675 6.42852C16.125 4.87852 14.2333 4.10352 12 4.10352C9.76667 4.10352 7.875 4.87852 6.325 6.42852C4.775 7.97852 4 9.87018 4 12.1035C4 14.3368 4.775 16.2285 6.325 17.7785C7.875 19.3285 9.76667 20.1035 12 20.1035H12.3L12.9 22.0535ZM20.525 22.6035L16.25 18.3285L15 22.1035L12 12.1035L22 15.1035L18.225 16.3535L22.5 20.6285L20.525 22.6035Z" fill="url(#paint0_linear_652_4835)"/>
<defs>
<linearGradient id="paint0_linear_652_4835" x1="12.25" y1="2.10352" x2="12.25" y2="22.6035" gradientUnits="userSpaceOnUse">
<stop stop-color="#9D9D9D"/>
<stop offset="1" stop-color="#9D9D9D" stop-opacity="0.8"/>
</linearGradient>
</defs>
</svg>
