<svg width="25" height="25" viewBox="0 0 25 25" fill="none" xmlns="http://www.w3.org/2000/svg">
<path d="M4.5 20.9531C3.95 20.9531 3.47917 20.7573 3.0875 20.3656C2.69583 19.974 2.5 19.5031 2.5 18.9531V14.9531H7.5V15.9531H9.5V14.9531H15.5V15.9531H17.5V14.9531H22.5V18.9531C22.5 19.5031 22.3042 19.974 21.9125 20.3656C21.5208 20.7573 21.05 20.9531 20.5 20.9531H4.5ZM2.925 12.9531L5 8.15313C5.15 7.78646 5.39167 7.49479 5.725 7.27813C6.05833 7.06146 6.41667 6.95313 6.8 6.95313H7.5V5.95313C7.5 5.40313 7.69583 4.93229 8.0875 4.54063C8.47917 4.14896 8.95 3.95312 9.5 3.95312H15.5C16.05 3.95312 16.5208 4.14896 16.9125 4.54063C17.3042 4.93229 17.5 5.40313 17.5 5.95313V6.95313H18.2C18.5833 6.95313 18.9417 7.06146 19.275 7.27813C19.6083 7.49479 19.85 7.78646 20 8.15313L22.075 12.9531H17.5V11.9531H15.5V12.9531H9.5V11.9531H7.5V12.9531H2.925ZM9.5 6.95313H15.5V5.95313H9.5V6.95313Z" fill="url(#paint0_linear_639_2126)"/>
<defs>
<linearGradient id="paint0_linear_639_2126" x1="12.5" y1="3.95312" x2="12.5" y2="20.9531" gradientUnits="userSpaceOnUse">
<stop stop-color="#9D9D9D"/>
<stop offset="1" stop-color="#9D9D9D" stop-opacity="0.8"/>
</linearGradient>
</defs>
</svg>
