<svg width="25" height="25" viewBox="0 0 25 25" fill="none" xmlns="http://www.w3.org/2000/svg">
<path d="M2.5 20.9531V17.9531H4.5V6.95313C4.5 6.40313 4.69583 5.93229 5.0875 5.54063C5.47917 5.14896 5.95 4.95312 6.5 4.95312H21.5V6.95313H6.5V17.9531H12.5V20.9531H2.5ZM15.5 20.9531C15.2167 20.9531 14.9792 20.8573 14.7875 20.6656C14.5958 20.474 14.5 20.2365 14.5 19.9531V9.95313C14.5 9.66979 14.5958 9.43229 14.7875 9.24063C14.9792 9.04896 15.2167 8.95313 15.5 8.95313H21.5C21.7833 8.95313 22.0208 9.04896 22.2125 9.24063C22.4042 9.43229 22.5 9.66979 22.5 9.95313V19.9531C22.5 20.2365 22.4042 20.474 22.2125 20.6656C22.0208 20.8573 21.7833 20.9531 21.5 20.9531H15.5Z" fill="url(#paint0_linear_639_2114)"/>
<defs>
<linearGradient id="paint0_linear_639_2114" x1="12.5" y1="4.95312" x2="12.5" y2="20.9531" gradientUnits="userSpaceOnUse">
<stop stop-color="#9D9D9D"/>
<stop offset="1" stop-color="#9D9D9D" stop-opacity="0.8"/>
</linearGradient>
</defs>
</svg>
