<svg width="25" height="25" viewBox="0 0 25 25" fill="none" xmlns="http://www.w3.org/2000/svg">
<path d="M3.5 8.95313V5.95313C3.5 5.40313 3.69583 4.93229 4.0875 4.54063C4.47917 4.14896 4.95 3.95312 5.5 3.95312H20.5C21.05 3.95312 21.5208 4.14896 21.9125 4.54063C22.3042 4.93229 22.5 5.40313 22.5 5.95313V8.95313H3.5ZM8.5 10.9531V21.9531H5.5C4.95 21.9531 4.47917 21.7573 4.0875 21.3656C3.69583 20.974 3.5 20.5031 3.5 19.9531V10.9531H8.5ZM17.5 10.9531H22.5V19.9531C22.5 20.5031 22.3042 20.974 21.9125 21.3656C21.5208 21.7573 21.05 21.9531 20.5 21.9531H17.5V10.9531ZM15.5 10.9531V21.9531H10.5V10.9531H15.5Z" fill="url(#paint0_linear_639_2120)"/>
<defs>
<linearGradient id="paint0_linear_639_2120" x1="13" y1="3.95312" x2="13" y2="21.9531" gradientUnits="userSpaceOnUse">
<stop stop-color="#9D9D9D"/>
<stop offset="1" stop-color="#9D9D9D" stop-opacity="0.8"/>
</linearGradient>
</defs>
</svg>
