<svg width="24" height="25" viewBox="0 0 24 25" fill="none" xmlns="http://www.w3.org/2000/svg">
<path d="M18.6 13.4434V11.1934H23V13.4434H18.6ZM19.92 21.3184L16.4 18.6184L17.72 16.8184L21.24 19.5184L19.92 21.3184ZM17.72 7.81836L16.4 6.01836L19.92 3.31836L21.24 5.11836L17.72 7.81836ZM4.3 20.1934V15.6934H3.2C2.595 15.6934 2.07708 15.473 1.64625 15.0324C1.21542 14.5918 1 14.0621 1 13.4434V11.1934C1 10.5746 1.21542 10.0449 1.64625 9.6043C2.07708 9.16367 2.595 8.94336 3.2 8.94336H7.6L13.1 5.56836V19.0684L7.6 15.6934H6.5V20.1934H4.3ZM14.2 16.0871V8.54961C14.695 8.99961 15.0937 9.54805 15.3962 10.1949C15.6987 10.8418 15.85 11.5496 15.85 12.3184C15.85 13.0871 15.6987 13.7949 15.3962 14.4418C15.0937 15.0887 14.695 15.6371 14.2 16.0871Z" fill="url(#paint0_linear_652_4847)"/>
<defs>
<linearGradient id="paint0_linear_652_4847" x1="12" y1="3.31836" x2="12" y2="21.3184" gradientUnits="userSpaceOnUse">
<stop stop-color="#9D9D9D"/>
<stop offset="1" stop-color="#9D9D9D" stop-opacity="0.8"/>
</linearGradient>
</defs>
</svg>
