<svg width="41" height="41" viewBox="0 0 41 41" fill="none" xmlns="http://www.w3.org/2000/svg">
<path d="M15.75 31.6885V28.3551H35.75V31.6885H15.75ZM15.75 21.6885V18.3551H35.75V21.6885H15.75ZM15.75 11.6885V8.35514H35.75V11.6885H15.75ZM9.08333 33.3551C8.16667 33.3551 7.38194 33.0288 6.72917 32.376C6.07639 31.7232 5.75 30.9385 5.75 30.0218C5.75 29.1051 6.07639 28.3204 6.72917 27.6676C7.38194 27.0149 8.16667 26.6885 9.08333 26.6885C10 26.6885 10.7847 27.0149 11.4375 27.6676C12.0903 28.3204 12.4167 29.1051 12.4167 30.0218C12.4167 30.9385 12.0903 31.7232 11.4375 32.376C10.7847 33.0288 10 33.3551 9.08333 33.3551ZM9.08333 23.3551C8.16667 23.3551 7.38194 23.0288 6.72917 22.376C6.07639 21.7232 5.75 20.9385 5.75 20.0218C5.75 19.1051 6.07639 18.3204 6.72917 17.6676C7.38194 17.0149 8.16667 16.6885 9.08333 16.6885C10 16.6885 10.7847 17.0149 11.4375 17.6676C12.0903 18.3204 12.4167 19.1051 12.4167 20.0218C12.4167 20.9385 12.0903 21.7232 11.4375 22.376C10.7847 23.0288 10 23.3551 9.08333 23.3551ZM9.08333 13.3551C8.16667 13.3551 7.38194 13.0288 6.72917 12.376C6.07639 11.7232 5.75 10.9385 5.75 10.0218C5.75 9.10514 6.07639 8.32042 6.72917 7.66764C7.38194 7.01487 8.16667 6.68848 9.08333 6.68848C10 6.68848 10.7847 7.01487 11.4375 7.66764C12.0903 8.32042 12.4167 9.10514 12.4167 10.0218C12.4167 10.9385 12.0903 11.7232 11.4375 12.376C10.7847 13.0288 10 13.3551 9.08333 13.3551Z" fill="url(#paint0_linear_652_4817)"/>
<defs>
<linearGradient id="paint0_linear_652_4817" x1="20.75" y1="6.68848" x2="20.75" y2="33.3551" gradientUnits="userSpaceOnUse">
<stop stop-color="#9D9D9D"/>
<stop offset="1" stop-color="#9D9D9D" stop-opacity="0.8"/>
</linearGradient>
</defs>
</svg>
