<svg width="40" height="41" viewBox="0 0 40 41" fill="none" xmlns="http://www.w3.org/2000/svg">
<path d="M18.3333 4.03743C18.8611 3.73188 19.4167 3.5791 20 3.5791C20.5833 3.5791 21.1389 3.73188 21.6667 4.03743L33.3333 10.7458C33.8611 11.0513 34.2708 11.4541 34.5625 11.9541C34.8542 12.4541 35 13.0097 35 13.6208V20.6624C34.0556 19.9958 33.0208 19.4819 31.8958 19.1208C30.7708 18.7597 29.5833 18.5791 28.3333 18.5791C27.8611 18.5791 27.4097 18.5999 26.9792 18.6416C26.5486 18.6833 26.1111 18.7597 25.6667 18.8708L31.6667 15.4124V13.6624L29.875 12.6208L20 18.3291L10.125 12.6208L8.33333 13.6624V15.4124L18.3333 21.2041V24.2458C17.8056 25.1347 17.3958 26.0791 17.1042 27.0791C16.8125 28.0791 16.6667 29.1347 16.6667 30.2458C16.6667 31.4124 16.8264 32.5235 17.1458 33.5791C17.4653 34.6347 17.9167 35.6208 18.5 36.5374C18.4722 36.5097 18.4444 36.4958 18.4167 36.4958C18.3889 36.4958 18.3611 36.4819 18.3333 36.4541L6.66667 29.7458C6.13889 29.4402 5.72917 29.0374 5.4375 28.5374C5.14583 28.0374 5 27.4819 5 26.8708V13.6208C5 13.0097 5.14583 12.4541 5.4375 11.9541C5.72917 11.4541 6.13889 11.0513 6.66667 10.7458L18.3333 4.03743ZM28.3333 35.2458L33.3333 30.2458L32.1667 29.0791L29.1667 32.0791V25.2458H27.5V32.0791L24.5 29.0791L23.3333 30.2458L28.3333 35.2458ZM28.3333 38.5791C26.0278 38.5791 24.0625 37.7666 22.4375 36.1416C20.8125 34.5166 20 32.5513 20 30.2458C20 27.9402 20.8125 25.9749 22.4375 24.3499C24.0625 22.7249 26.0278 21.9124 28.3333 21.9124C30.6389 21.9124 32.6042 22.7249 34.2292 24.3499C35.8542 25.9749 36.6667 27.9402 36.6667 30.2458C36.6667 32.5513 35.8542 34.5166 34.2292 36.1416C32.6042 37.7666 30.6389 38.5791 28.3333 38.5791Z" fill="url(#paint0_linear_652_4862)"/>
<defs>
<linearGradient id="paint0_linear_652_4862" x1="20.8333" y1="3.5791" x2="20.8333" y2="38.5791" gradientUnits="userSpaceOnUse">
<stop stop-color="#9D9D9D"/>
<stop offset="1" stop-color="#9D9D9D" stop-opacity="0.8"/>
</linearGradient>
</defs>
</svg>
