<svg width="24" height="25" viewBox="0 0 24 25" fill="none" xmlns="http://www.w3.org/2000/svg">
<path d="M11 17.1035H13V11.1035H11V17.1035ZM12 9.10352C12.2833 9.10352 12.5208 9.00768 12.7125 8.81602C12.9042 8.62435 13 8.38685 13 8.10352C13 7.82018 12.9042 7.58268 12.7125 7.39102C12.5208 7.19935 12.2833 7.10352 12 7.10352C11.7167 7.10352 11.4792 7.19935 11.2875 7.39102C11.0958 7.58268 11 7.82018 11 8.10352C11 8.38685 11.0958 8.62435 11.2875 8.81602C11.4792 9.00768 11.7167 9.10352 12 9.10352ZM12 22.1035C10.6167 22.1035 9.31667 21.841 8.1 21.316C6.88333 20.791 5.825 20.0785 4.925 19.1785C4.025 18.2785 3.3125 17.2202 2.7875 16.0035C2.2625 14.7868 2 13.4868 2 12.1035C2 10.7202 2.2625 9.42018 2.7875 8.20352C3.3125 6.98685 4.025 5.92852 4.925 5.02852C5.825 4.12852 6.88333 3.41602 8.1 2.89102C9.31667 2.36602 10.6167 2.10352 12 2.10352C13.3833 2.10352 14.6833 2.36602 15.9 2.89102C17.1167 3.41602 18.175 4.12852 19.075 5.02852C19.975 5.92852 20.6875 6.98685 21.2125 8.20352C21.7375 9.42018 22 10.7202 22 12.1035C22 13.4868 21.7375 14.7868 21.2125 16.0035C20.6875 17.2202 19.975 18.2785 19.075 19.1785C18.175 20.0785 17.1167 20.791 15.9 21.316C14.6833 21.841 13.3833 22.1035 12 22.1035Z" fill="url(#paint0_linear_652_4829)"/>
<defs>
<linearGradient id="paint0_linear_652_4829" x1="12" y1="2.10352" x2="12" y2="22.1035" gradientUnits="userSpaceOnUse">
<stop stop-color="#9D9D9D"/>
<stop offset="1" stop-color="#9D9D9D" stop-opacity="0.8"/>
</linearGradient>
</defs>
</svg>
