<svg width="41" height="41" viewBox="0 0 41 41" fill="none" xmlns="http://www.w3.org/2000/svg">
<path d="M3.58398 33.3551V28.3551H6.91732V10.0218C6.91732 9.10514 7.24371 8.32042 7.89648 7.66764C8.54926 7.01487 9.33399 6.68848 10.2507 6.68848H35.2507V10.0218H10.2507V28.3551H20.2507V33.3551H3.58398ZM25.2507 33.3551C24.7784 33.3551 24.3826 33.1954 24.0632 32.876C23.7437 32.5565 23.584 32.1607 23.584 31.6885V15.0218C23.584 14.5496 23.7437 14.1538 24.0632 13.8343C24.3826 13.5149 24.7784 13.3551 25.2507 13.3551H35.2507C35.7229 13.3551 36.1187 13.5149 36.4382 13.8343C36.7576 14.1538 36.9173 14.5496 36.9173 15.0218V31.6885C36.9173 32.1607 36.7576 32.5565 36.4382 32.876C36.1187 33.1954 35.7229 33.3551 35.2507 33.3551H25.2507Z" fill="url(#paint0_linear_652_4683)"/>
<defs>
<linearGradient id="paint0_linear_652_4683" x1="20.2507" y1="6.68848" x2="20.2507" y2="33.3551" gradientUnits="userSpaceOnUse">
<stop stop-color="#9D9D9D"/>
<stop offset="1" stop-color="#9D9D9D" stop-opacity="0.8"/>
</linearGradient>
</defs>
</svg>
