<svg width="41" height="41" viewBox="0 0 41 41" fill="none" xmlns="http://www.w3.org/2000/svg">
<path d="M5.5 21.6882V8.35482C5.5 7.43815 5.82639 6.65343 6.47917 6.00065C7.13194 5.34787 7.91667 5.02148 8.83333 5.02148H18.8333V21.6882H5.5ZM22.1667 5.02148H32.1667C33.0833 5.02148 33.8681 5.34787 34.5208 6.00065C35.1736 6.65343 35.5 7.43815 35.5 8.35482V15.0215H22.1667V5.02148ZM22.1667 35.0215V18.3548H35.5V31.6882C35.5 32.6048 35.1736 33.3895 34.5208 34.0423C33.8681 34.6951 33.0833 35.0215 32.1667 35.0215H22.1667ZM5.5 25.0215H18.8333V35.0215H8.83333C7.91667 35.0215 7.13194 34.6951 6.47917 34.0423C5.82639 33.3895 5.5 32.6048 5.5 31.6882V25.0215Z" fill="url(#paint0_linear_652_4691)"/>
<defs>
<linearGradient id="paint0_linear_652_4691" x1="20.5" y1="5.02148" x2="20.5" y2="35.0215" gradientUnits="userSpaceOnUse">
<stop stop-color="#9D9D9D"/>
<stop offset="1" stop-color="#9D9D9D" stop-opacity="0.8"/>
</linearGradient>
</defs>
</svg>
