<svg width="40" height="41" viewBox="0 0 40 41" fill="none" xmlns="http://www.w3.org/2000/svg">
<path d="M18.3333 3.81283C18.8611 3.50727 19.4167 3.35449 20 3.35449C20.5833 3.35449 21.1389 3.50727 21.6667 3.81283L33.3333 10.5212C33.8611 10.8267 34.2708 11.2295 34.5625 11.7295C34.8542 12.2295 35 12.785 35 13.3962V20.4378C34.0556 19.7712 33.0208 19.2573 31.8958 18.8962C30.7708 18.535 29.5833 18.3545 28.3333 18.3545C27.8611 18.3545 27.4097 18.3753 26.9792 18.417C26.5486 18.4587 26.1111 18.535 25.6667 18.6462L31.6667 15.1878V13.4378L29.875 12.3962L20 18.1045L10.125 12.3962L8.33333 13.4378V15.1878L18.3333 20.9795V24.0212C17.8056 24.91 17.3958 25.8545 17.1042 26.8545C16.8125 27.8545 16.6667 28.91 16.6667 30.0212C16.6667 31.1878 16.8264 32.2989 17.1458 33.3545C17.4653 34.41 17.9167 35.3962 18.5 36.3128C18.4722 36.285 18.4444 36.2712 18.4167 36.2712C18.3889 36.2712 18.3611 36.2573 18.3333 36.2295L6.66667 29.5212C6.13889 29.2156 5.72917 28.8128 5.4375 28.3128C5.14583 27.8128 5 27.2573 5 26.6462V13.3962C5 12.785 5.14583 12.2295 5.4375 11.7295C5.72917 11.2295 6.13889 10.8267 6.66667 10.5212L18.3333 3.81283ZM28.3333 35.0212L33.3333 30.0212L32.1667 28.8545L29.1667 31.8545V25.0212H27.5V31.8545L24.5 28.8545L23.3333 30.0212L28.3333 35.0212ZM28.3333 38.3545C26.0278 38.3545 24.0625 37.542 22.4375 35.917C20.8125 34.292 20 32.3267 20 30.0212C20 27.7156 20.8125 25.7503 22.4375 24.1253C24.0625 22.5003 26.0278 21.6878 28.3333 21.6878C30.6389 21.6878 32.6042 22.5003 34.2292 24.1253C35.8542 25.7503 36.6667 27.7156 36.6667 30.0212C36.6667 32.3267 35.8542 34.292 34.2292 35.917C32.6042 37.542 30.6389 38.3545 28.3333 38.3545Z" fill="url(#paint0_linear_652_4675)"/>
<defs>
<linearGradient id="paint0_linear_652_4675" x1="20.8333" y1="3.35449" x2="20.8333" y2="38.3545" gradientUnits="userSpaceOnUse">
<stop stop-color="#9D9D9D"/>
<stop offset="1" stop-color="#9D9D9D" stop-opacity="0.8"/>
</linearGradient>
</defs>
</svg>
