<svg width="40" height="40" viewBox="0 0 40 40" fill="none" xmlns="http://www.w3.org/2000/svg">
<path d="M4.37435 30.2923L1.66602 28.334L9.99935 15.0007L14.9993 20.834L21.666 10.0007L26.2077 16.7923C25.5688 16.8201 24.9646 16.8965 24.3952 17.0215C23.8257 17.1465 23.2632 17.3201 22.7077 17.5423L21.791 16.1673L15.4577 26.459L10.416 20.584L4.37435 30.2923ZM35.9577 38.334L30.7493 33.1257C30.1938 33.5145 29.5757 33.8062 28.8952 34.0007C28.2146 34.1951 27.5132 34.2923 26.791 34.2923C24.7077 34.2923 22.9368 33.5632 21.4785 32.1048C20.0202 30.6465 19.291 28.8757 19.291 26.7923C19.291 24.709 20.0202 22.9382 21.4785 21.4798C22.9368 20.0215 24.7077 19.2923 26.791 19.2923C28.8743 19.2923 30.6452 20.0215 32.1035 21.4798C33.5618 22.9382 34.291 24.709 34.291 26.7923C34.291 27.5145 34.1938 28.2159 33.9993 28.8965C33.8049 29.577 33.5132 30.209 33.1243 30.7923L38.3327 35.959L35.9577 38.334ZM26.791 30.959C27.9577 30.959 28.9438 30.5562 29.7493 29.7507C30.5549 28.9451 30.9577 27.959 30.9577 26.7923C30.9577 25.6257 30.5549 24.6395 29.7493 23.834C28.9438 23.0284 27.9577 22.6257 26.791 22.6257C25.6243 22.6257 24.6382 23.0284 23.8327 23.834C23.0271 24.6395 22.6243 25.6257 22.6243 26.7923C22.6243 27.959 23.0271 28.9451 23.8327 29.7507C24.6382 30.5562 25.6243 30.959 26.791 30.959ZM30.4993 17.6257C29.9716 17.4034 29.423 17.2229 28.8535 17.084C28.2841 16.9451 27.6938 16.8618 27.0827 16.834L35.6243 3.33398L38.3327 5.29232L30.4993 17.6257Z" fill="url(#paint0_linear_652_4506)"/>
<defs>
<linearGradient id="paint0_linear_652_4506" x1="19.9993" y1="3.33398" x2="19.9993" y2="38.334" gradientUnits="userSpaceOnUse">
<stop stop-color="#9D9D9D"/>
<stop offset="1" stop-color="#9D9D9D" stop-opacity="0.8"/>
</linearGradient>
</defs>
</svg>
