<svg width="24" height="24" viewBox="0 0 24 24" fill="none" xmlns="http://www.w3.org/2000/svg">
<path d="M18.9 20.9996L13.425 15.5246L15.525 13.4246L21 18.8996L18.9 20.9996ZM5.1 20.9996L3 18.8996L9.9 11.9996L8.2 10.2996L7.5 10.9996L6.225 9.72461V11.7746L5.525 12.4746L2.5 9.44961L3.2 8.74961H5.25L4 7.49961L7.55 3.94961C7.88333 3.61628 8.24167 3.37461 8.625 3.22461C9.00833 3.07461 9.4 2.99961 9.8 2.99961C10.2 2.99961 10.5917 3.07461 10.975 3.22461C11.3583 3.37461 11.7167 3.61628 12.05 3.94961L9.75 6.24961L11 7.49961L10.3 8.19961L12 9.89961L14.25 7.64961C14.1833 7.46628 14.1292 7.27461 14.0875 7.07461C14.0458 6.87461 14.025 6.67461 14.025 6.47461C14.025 5.49128 14.3625 4.66211 15.0375 3.98711C15.7125 3.31211 16.5417 2.97461 17.525 2.97461C17.775 2.97461 18.0125 2.99961 18.2375 3.04961C18.4625 3.09961 18.6917 3.17461 18.925 3.27461L16.45 5.74961L18.25 7.54961L20.725 5.07461C20.8417 5.30794 20.9208 5.53711 20.9625 5.76211C21.0042 5.98711 21.025 6.22461 21.025 6.47461C21.025 7.45794 20.6875 8.28711 20.0125 8.96211C19.3375 9.63711 18.5083 9.97461 17.525 9.97461C17.325 9.97461 17.125 9.95794 16.925 9.92461C16.725 9.89128 16.5333 9.83294 16.35 9.74961L5.1 20.9996Z" fill="url(#paint0_linear_703_6164)"/>
<defs>
<linearGradient id="paint0_linear_703_6164" x1="11.7625" y1="2.97461" x2="11.7625" y2="20.9996" gradientUnits="userSpaceOnUse">
<stop stop-color="#408C40"/>
<stop offset="1" stop-color="#408C40" stop-opacity="0.4"/>
</linearGradient>
</defs>
</svg>
