<svg width="40" height="40" viewBox="0 0 40 40" fill="none" xmlns="http://www.w3.org/2000/svg">
<path d="M16.6667 13.3333V5H31.6667C32.5833 5 33.3681 5.32639 34.0208 5.97917C34.6736 6.63194 35 7.41667 35 8.33333V13.3333H16.6667ZM8.33333 35C7.41667 35 6.63194 34.6736 5.97917 34.0208C5.32639 33.3681 5 32.5833 5 31.6667V16.6667H13.3333V35H8.33333ZM5 13.3333V8.33333C5 7.41667 5.32639 6.63194 5.97917 5.97917C6.63194 5.32639 7.41667 5 8.33333 5H13.3333V13.3333H5ZM21.6667 36.6667L15 30L21.6667 23.3333L24 25.6667L21.4167 28.3333H25C25.9167 28.3333 26.7014 28.0069 27.3542 27.3542C28.0069 26.7014 28.3333 25.9167 28.3333 25V21.3333L25.6667 24L23.3333 21.6667L30 15L36.6667 21.6667L34.3333 24L31.6667 21.3333V25C31.6667 26.8333 31.0139 28.4028 29.7083 29.7083C28.4028 31.0139 26.8333 31.6667 25 31.6667H21.4167L24 34.3333L21.6667 36.6667Z" fill="url(#paint0_linear_652_4527)"/>
<defs>
<linearGradient id="paint0_linear_652_4527" x1="20.8333" y1="5" x2="20.8333" y2="36.6667" gradientUnits="userSpaceOnUse">
<stop stop-color="#9D9D9D"/>
<stop offset="1" stop-color="#9D9D9D" stop-opacity="0.8"/>
</linearGradient>
</defs>
</svg>
