<svg width="40" height="40" viewBox="0 0 40 40" fill="none" xmlns="http://www.w3.org/2000/svg">
<path d="M11.6673 30.0006C11.1951 30.0006 10.7993 29.8409 10.4798 29.5215C10.1604 29.202 10.0007 28.8062 10.0007 28.334V25.0006H31.6673V10.0007H35.0006C35.4729 10.0007 35.8687 10.1604 36.1881 10.4798C36.5076 10.7993 36.6673 11.1951 36.6673 11.6673V36.6673L30.0006 30.0006H11.6673ZM3.33398 28.334V5.00065C3.33398 4.52843 3.49371 4.1326 3.81315 3.81315C4.1326 3.49371 4.52843 3.33398 5.00065 3.33398H26.6673C27.1395 3.33398 27.5354 3.49371 27.8548 3.81315C28.1743 4.1326 28.334 4.52843 28.334 5.00065V20.0007C28.334 20.4729 28.1743 20.8687 27.8548 21.1881C27.5354 21.5076 27.1395 21.6673 26.6673 21.6673H10.0007L3.33398 28.334Z" fill="url(#paint0_linear_652_4529)"/>
<defs>
<linearGradient id="paint0_linear_652_4529" x1="20.0007" y1="3.33398" x2="20.0007" y2="36.6673" gradientUnits="userSpaceOnUse">
<stop stop-color="#9D9D9D"/>
<stop offset="1" stop-color="#9D9D9D" stop-opacity="0.8"/>
</linearGradient>
</defs>
</svg>
