<svg width="40" height="40" viewBox="0 0 40 40" fill="none" xmlns="http://www.w3.org/2000/svg">
<path d="M20.0007 36.6673C17.6951 36.6673 15.7298 35.8548 14.1048 34.2298C12.4798 32.6048 11.6673 30.6395 11.6673 28.334V13.334C10.7507 13.334 9.96593 13.0076 9.31315 12.3548C8.66037 11.702 8.33398 10.9173 8.33398 10.0007V6.66732C8.33398 5.75065 8.66037 4.96593 9.31315 4.31315C9.96593 3.66037 10.7507 3.33398 11.6673 3.33398H28.334C29.2507 3.33398 30.0354 3.66037 30.6882 4.31315C31.3409 4.96593 31.6673 5.75065 31.6673 6.66732V10.0007C31.6673 10.9173 31.3409 11.702 30.6882 12.3548C30.0354 13.0076 29.2507 13.334 28.334 13.334V28.334C28.334 30.6395 27.5215 32.6048 25.8965 34.2298C24.2715 35.8548 22.3062 36.6673 20.0007 36.6673ZM20.0007 33.334C21.084 33.334 22.0562 33.0215 22.9173 32.3965C23.7784 31.7715 24.3757 30.9729 24.709 30.0006H20.0007V26.6673H25.0007V25.0006H20.0007V21.6673H25.0007V20.0007H20.0007V16.6673H25.0007V13.334H15.0007V28.334C15.0007 29.7229 15.4868 30.9034 16.459 31.8756C17.4312 32.8479 18.6118 33.334 20.0007 33.334Z" fill="url(#paint0_linear_652_4508)"/>
<defs>
<linearGradient id="paint0_linear_652_4508" x1="20.0007" y1="3.33398" x2="20.0007" y2="36.6673" gradientUnits="userSpaceOnUse">
<stop stop-color="#9D9D9D"/>
<stop offset="1" stop-color="#9D9D9D" stop-opacity="0.8"/>
</linearGradient>
</defs>
</svg>
